<svg version="1.1" viewBox="0.0 0.0 322.18372703412075 280.59055118110234" fill="none" stroke="none" stroke-linecap="square" stroke-miterlimit="10" xmlns:xlink="http://www.w3.org/1999/xlink" xmlns="http://www.w3.org/2000/svg"><clipPath id="p.0"><path d="m0 0l322.18372 0l0 280.59055l-322.18372 0l0 -280.59055z" clip-rule="nonzero"/></clipPath><g clip-path="url(#p.0)"><path fill="#000000" fill-opacity="0.0" d="m0 0l322.18372 0l0 280.59055l-322.18372 0z" fill-rule="evenodd"/><path fill="#93c47d" d="m0 41.790863l0 0c0 -23.080458 18.710405 -41.790863 41.790863 -41.790863l219.88284 0c11.083618 0 21.713287 4.402953 29.550598 12.24026c7.837311 7.837306 12.240265 18.466976 12.240265 29.550602l0 167.15843c0 23.08046 -18.710419 41.790863 -41.790863 41.790863l-219.88284 0c-23.080458 0 -41.790863 -18.710403 -41.790863 -41.790863z" fill-rule="evenodd"/><path fill="#76a5af" d="m30.67979 70.52315l0 0c0 -23.08046 18.710407 -41.790863 41.79086 -41.790863l206.65451 0c11.083618 0 21.713287 4.402952 29.550598 12.240259c7.837311 7.837307 12.240265 18.466976 12.240265 29.550606l0 167.15843c0 23.080444 -18.710419 41.790863 -41.790863 41.790863l-206.65451 0c-23.080452 0 -41.79086 -18.710419 -41.79086 -41.790863z" fill-rule="evenodd"/><path fill="#ffffff" d="m69.53675 241.73727l47.811028 -107.023636l5.5747986 2.4566956l-47.81102 107.02362z" fill-rule="evenodd"/><path stroke="#ffffff" stroke-width="2.320209973753281" stroke-linejoin="round" stroke-linecap="butt" d="m69.53675 241.73727l47.811028 -107.023636l5.5747986 2.4566956l-47.81102 107.02362z" fill-rule="evenodd"/><path fill="#ffffff" d="m227.1105 180.79572l59.24408 -101.03937l5.2913513 3.1811066l-59.244095 101.03937z" fill-rule="evenodd"/><path stroke="#ffffff" stroke-width="2.320209973753281" stroke-linejoin="round" stroke-linecap="butt" d="m227.1105 180.79572l59.24408 -101.03937l5.2913513 3.1811066l-59.244095 101.03937z" fill-rule="evenodd"/><path fill="#ffffff" d="m125.50912 129.68185l106.74015 48.18898l-2.551178 5.5433044l-106.74015 -48.18898z" fill-rule="evenodd"/><path stroke="#ffffff" stroke-width="2.320209973753281" stroke-linejoin="round" stroke-linecap="butt" d="m125.50912 129.68185l106.74015 48.18898l-2.551178 5.5433044l-106.74015 -48.18898z" fill-rule="evenodd"/><path fill="#ffffff" d="m60.181103 245.97643l0 0c0 -6.801361 5.6828117 -12.314957 12.692913 -12.314957l0 0c3.3663712 0 6.594864 1.2974548 8.975243 3.606964c2.3803864 2.309494 3.7176743 5.441864 3.7176743 8.707993l0 0c0 6.801361 -5.6828156 12.314957 -12.692917 12.314957l0 0c-7.0101013 0 -12.692913 -5.5135956 -12.692913 -12.314957z" fill-rule="evenodd"/><path stroke="#ffffff" stroke-width="2.320209973753281" stroke-linejoin="round" stroke-linecap="butt" d="m60.181103 245.97643l0 0c0 -6.801361 5.6828117 -12.314957 12.692913 -12.314957l0 0c3.3663712 0 6.594864 1.2974548 8.975243 3.606964c2.3803864 2.309494 3.7176743 5.441864 3.7176743 8.707993l0 0c0 6.801361 -5.6828156 12.314957 -12.692917 12.314957l0 0c-7.0101013 0 -12.692913 -5.5135956 -12.692913 -12.314957z" fill-rule="evenodd"/><path fill="#ffffff" d="m110.97233 131.86977l0 0c0 -6.801361 5.6828156 -12.314957 12.692917 -12.314957l0 0c3.3663712 0 6.5948563 1.2974625 8.975243 3.6069717c2.3803864 2.3095016 3.7176666 5.4418564 3.7176666 8.707985l0 0c0 6.8013763 -5.6828156 12.314972 -12.692909 12.314972l0 0c-7.0101013 0 -12.692917 -5.5135956 -12.692917 -12.314972z" fill-rule="evenodd"/><path stroke="#ffffff" stroke-width="2.320209973753281" stroke-linejoin="round" stroke-linecap="butt" d="m110.97233 131.86977l0 0c0 -6.801361 5.6828156 -12.314957 12.692917 -12.314957l0 0c3.3663712 0 6.5948563 1.2974625 8.975243 3.6069717c2.3803864 2.3095016 3.7176666 5.4418564 3.7176666 8.707985l0 0c0 6.8013763 -5.6828156 12.314972 -12.692909 12.314972l0 0c-7.0101013 0 -12.692917 -5.5135956 -12.692917 -12.314972z" fill-rule="evenodd"/><path fill="#ffffff" d="m220.74792 181.22826l0 0c0 -6.801361 5.6828003 -12.314957 12.692902 -12.314957l0 0c3.3663788 0 6.594864 1.2974548 8.97525 3.606964c2.3803864 2.309494 3.7176666 5.441864 3.7176666 8.707993l0 0c0 6.801361 -5.6828156 12.314957 -12.692917 12.314957l0 0c-7.0101013 0 -12.692902 -5.5135956 -12.692902 -12.314957z" fill-rule="evenodd"/><path stroke="#ffffff" stroke-width="2.320209973753281" stroke-linejoin="round" stroke-linecap="butt" d="m220.74792 181.22826l0 0c0 -6.801361 5.6828003 -12.314957 12.692902 -12.314957l0 0c3.3663788 0 6.594864 1.2974548 8.97525 3.606964c2.3803864 2.309494 3.7176666 5.441864 3.7176666 8.707993l0 0c0 6.801361 -5.6828156 12.314957 -12.692917 12.314957l0 0c-7.0101013 0 -12.692902 -5.5135956 -12.692902 -12.314957z" fill-rule="evenodd"/><path fill="#ffffff" d="m278.07318 81.10566l0 0c0 -6.8013687 5.682831 -12.314964 12.692932 -12.314964l0 0c3.3663635 0 6.5948486 1.2974701 8.97525 3.6069717c2.380371 2.3095016 3.7176514 5.4418564 3.7176514 8.707993l0 0c0 6.801361 -5.6828003 12.314957 -12.692902 12.314957l0 0c-7.0101013 0 -12.692932 -5.5135956 -12.692932 -12.314957z" fill-rule="evenodd"/><path stroke="#ffffff" stroke-width="2.320209973753281" stroke-linejoin="round" stroke-linecap="butt" d="m278.07318 81.10566l0 0c0 -6.8013687 5.682831 -12.314964 12.692932 -12.314964l0 0c3.3663635 0 6.5948486 1.2974701 8.97525 3.6069717c2.380371 2.3095016 3.7176514 5.4418564 3.7176514 8.707993l0 0c0 6.801361 -5.6828003 12.314957 -12.692902 12.314957l0 0c-7.0101013 0 -12.692932 -5.5135956 -12.692932 -12.314957z" fill-rule="evenodd"/></g></svg>