<svg version="1.1" viewBox="0.0 0.0 734.9580052493438 282.62467191601047" fill="none" stroke="none" stroke-linecap="square" stroke-miterlimit="10" xmlns:xlink="http://www.w3.org/1999/xlink" xmlns="http://www.w3.org/2000/svg"><clipPath id="p.0"><path d="m0 0l734.958 0l0 282.62466l-734.958 0l0 -282.62466z" clip-rule="nonzero"/></clipPath><g clip-path="url(#p.0)"><path fill="#000000" fill-opacity="0.0" d="m0 0l734.958 0l0 282.62466l-734.958 0z" fill-rule="evenodd"/><path fill="#00b7b5" d="m36.83727 41.790863l0 0c0 -23.080458 18.710407 -41.790863 41.790867 -41.790863l618.497 0c11.083679 0 21.713318 4.402953 29.550598 12.24026c7.8373413 7.837306 12.240295 18.466976 12.240295 29.550602l0 167.15843c0 23.08046 -18.710388 41.790863 -41.790894 41.790863l-618.497 0c-23.08046 0 -41.790867 -18.710403 -41.790867 -41.790863z" fill-rule="evenodd"/><path fill="#018790" d="m16.439632 54.775112l0 0c0 -23.080454 18.710407 -41.79086 41.790863 -41.79086l618.4971 0c11.083618 0 21.713257 4.402953 29.550598 12.24026c7.8372803 7.837305 12.240234 18.466978 12.240234 29.5506l0 167.15843c0 23.08046 -18.710388 41.790848 -41.790833 41.790848l-618.4971 0c-23.080456 0 -41.790863 -18.710388 -41.790863 -41.790848z" fill-rule="evenodd"/><path fill="#005461" d="m0 70.85385l0 0c0 -23.080452 18.710405 -41.79086 41.790863 -41.79086l618.4971 0c11.083618 0 21.713257 4.402954 29.550598 12.240261c7.8372803 7.837307 12.240234 18.466976 12.240234 29.550598l0 167.15843c0 23.08046 -18.710388 41.79088 -41.790833 41.79088l-618.4971 0c-23.080458 0 -41.790863 -18.710419 -41.790863 -41.79088z" fill-rule="evenodd"/><path fill="#000000" fill-opacity="0.0" d="m49.730972 79.37533l635.4961 0l0 192.62991l-635.4961 0z" fill-rule="evenodd"/><path fill="#ffffff" d="m150.2516 207.3703l0 -61.59375l24.109375 0q6.609375 0 11.921875 2.203125q5.328125 2.1875 9.109375 6.328125q3.78125 4.140625 5.796875 9.78125q2.03125 5.625 2.03125 12.484375q0 6.859375 -2.03125 12.546875q-2.015625 5.671875 -5.75 9.765625q-3.734375 4.078125 -9.109375 6.28125q-5.359375 2.203125 -11.96875 2.203125l-24.109375 0zm9.5 -8.1875l-0.265625 -0.96875l14.4375 0q4.65625 0 8.3125 -1.484375q3.65625 -1.5 6.15625 -4.265625q2.515625 -2.78125 3.828125 -6.828125q1.328125 -4.046875 1.328125 -9.0625q0 -5.015625 -1.328125 -9.015625q-1.3125 -4.015625 -3.875 -6.828125q-2.546875 -2.8125 -6.15625 -4.3125q-3.609375 -1.5 -8.265625 -1.5l-14.703125 0l0.53125 -0.78125l0 45.046875zm71.808426 9.0625q-5.71875 0 -10.4375 -3.15625q-4.703125 -3.171875 -7.515625 -8.625q-2.8125 -5.46875 -2.8125 -12.328125q0 -6.953125 2.859375 -12.359375q2.859375 -5.421875 7.734375 -8.5q4.890625 -3.078125 10.96875 -3.078125q3.609375 0 6.59375 1.0625q3.0 1.046875 5.234375 2.953125q2.25 1.890625 3.703125 4.359375q1.453125 2.453125 1.796875 5.265625l-2.015625 -0.703125l0 -11.96875l9.15625 0l0 46.203125l-9.15625 0l0 -11.0l2.109375 -0.609375q-0.53125 2.375 -2.15625 4.625q-1.625 2.234375 -4.140625 4.0q-2.5 1.75 -5.546875 2.8125q-3.03125 1.046875 -6.375 1.046875zm2.375 -8.359375q4.140625 0 7.296875 -2.015625q3.171875 -2.03125 4.96875 -5.59375q1.8125 -3.5625 1.8125 -8.140625q0 -4.484375 -1.8125 -8.0q-1.796875 -3.53125 -4.96875 -5.546875q-3.15625 -2.03125 -7.296875 -2.03125q-4.046875 0 -7.171875 2.03125q-3.125 2.015625 -4.9375 5.546875q-1.796875 3.515625 -1.796875 8.0q0 4.578125 1.796875 8.140625q1.8125 3.5625 4.9375 5.59375q3.125 2.015625 7.171875 2.015625zm41.282166 7.484375l0 -57.984375l9.0625 0l0 57.984375l-9.0625 0zm-9.59375 -37.40625l0 -8.796875l29.390625 0l0 8.796875l-29.390625 0zm54.992645 38.28125q-5.71875 0 -10.4375 -3.15625q-4.703125 -3.171875 -7.515625 -8.625q-2.8125 -5.46875 -2.8125 -12.328125q0 -6.953125 2.859375 -12.359375q2.859375 -5.421875 7.734375 -8.5q4.890625 -3.078125 10.96875 -3.078125q3.609375 0 6.59375 1.0625q3.0 1.046875 5.234375 2.953125q2.25 1.890625 3.703125 4.359375q1.453125 2.453125 1.796875 5.265625l-2.015625 -0.703125l0 -11.96875l9.15625 0l0 46.203125l-9.15625 0l0 -11.0l2.109375 -0.609375q-0.53125 2.375 -2.15625 4.625q-1.625 2.234375 -4.140625 4.0q-2.5 1.75 -5.546875 2.8125q-3.03125 1.046875 -6.375 1.046875zm2.375 -8.359375q4.140625 0 7.296875 -2.015625q3.171875 -2.03125 4.96875 -5.59375q1.8125 -3.5625 1.8125 -8.140625q0 -4.484375 -1.8125 -8.0q-1.796875 -3.53125 -4.96875 -5.546875q-3.15625 -2.03125 -7.296875 -2.03125q-4.046875 0 -7.171875 2.03125q-3.125 2.015625 -4.9375 5.546875q-1.796875 3.515625 -1.796875 8.0q0 4.578125 1.796875 8.140625q1.8125 3.5625 4.9375 5.59375q3.125 2.015625 7.171875 2.015625zm56.844666 8.359375q-5.015625 0 -9.28125 -1.3125q-4.265625 -1.328125 -7.75 -4.0q-3.46875 -2.6875 -6.1875 -6.65625l6.5 -7.46875q4.3125 6.15625 8.265625 8.53125q3.96875 2.375 9.421875 2.375q3.34375 0 6.078125 -1.046875q2.734375 -1.0625 4.3125 -2.90625q1.578125 -1.859375 1.578125 -4.234375q0 -1.578125 -0.53125 -2.984375q-0.515625 -1.40625 -1.625 -2.546875q-1.09375 -1.15625 -2.8125 -2.125q-1.71875 -0.96875 -4.015625 -1.703125q-2.28125 -0.75 -5.265625 -1.28125q-4.75 -0.96875 -8.28125 -2.546875q-3.515625 -1.59375 -5.890625 -3.96875q-2.375 -2.375 -3.515625 -5.40625q-1.140625 -3.046875 -1.140625 -6.828125q0 -3.6875 1.625 -6.859375q1.625 -3.171875 4.484375 -5.5q2.859375 -2.328125 6.734375 -3.609375q3.875 -1.28125 8.359375 -1.28125q4.75 0 8.703125 1.234375q3.96875 1.234375 7.046875 3.65625q3.078125 2.421875 5.109375 5.9375l-6.6875 6.59375q-1.765625 -2.890625 -3.96875 -4.875q-2.1875 -1.984375 -4.828125 -2.984375q-2.640625 -1.015625 -5.640625 -1.015625q-3.4375 0 -5.984375 1.0625q-2.546875 1.046875 -4.0 2.9375q-1.453125 1.890625 -1.453125 4.4375q0 1.859375 0.703125 3.40625q0.703125 1.53125 2.15625 2.71875q1.453125 1.1875 3.90625 2.109375q2.46875 0.921875 5.90625 1.625q4.84375 1.0625 8.625 2.6875q3.78125 1.625 6.421875 3.828125q2.640625 2.203125 4.0 4.9375q1.375 2.71875 1.375 5.890625q0 5.890625 -2.734375 10.203125q-2.734375 4.3125 -7.75 6.640625q-5.015625 2.328125 -11.96875 2.328125zm53.240143 0q-6.421875 0 -11.484375 -3.15625q-5.046875 -3.171875 -8.0 -8.625q-2.953125 -5.46875 -2.953125 -12.234375q0 -6.78125 2.953125 -12.234375q2.953125 -5.453125 8.0 -8.625q5.0625 -3.171875 11.484375 -3.171875q6.171875 0 11.21875 2.515625q5.0625 2.5 7.703125 6.8125l-5.015625 6.15625q-1.40625 -2.015625 -3.609375 -3.6875q-2.1875 -1.671875 -4.65625 -2.640625q-2.46875 -0.96875 -4.75 -0.96875q-4.234375 0 -7.53125 2.078125q-3.296875 2.0625 -5.234375 5.671875q-1.9375 3.609375 -1.9375 8.09375q0 4.484375 2.015625 8.046875q2.03125 3.5625 5.375 5.6875q3.34375 2.109375 7.390625 2.109375q2.375 0 4.625 -0.796875q2.25 -0.796875 4.359375 -2.375q2.109375 -1.59375 3.953125 -3.875l5.015625 6.15625q-2.8125 3.96875 -8.046875 6.515625q-5.234375 2.546875 -10.875 2.546875zm27.470673 -0.875l0 -46.203125l9.140625 0l0 14.515625l-0.875 -3.515625q0.96875 -3.34375 3.296875 -6.0625q2.328125 -2.734375 5.359375 -4.3125q3.046875 -1.59375 6.296875 -1.59375q1.5 0 2.859375 0.265625q1.375 0.265625 2.15625 0.625l-2.375 9.84375q-1.046875 -0.4375 -2.328125 -0.734375q-1.28125 -0.3125 -2.5 -0.3125q-2.390625 0 -4.546875 0.921875q-2.140625 0.921875 -3.78125 2.546875q-1.625 1.625 -2.59375 3.78125q-0.96875 2.15625 -0.96875 4.71875l0 25.515625l-9.140625 0zm51.29364 0.875q-5.71875 0 -10.4375 -3.15625q-4.703125 -3.171875 -7.515625 -8.625q-2.8125 -5.46875 -2.8125 -12.328125q0 -6.953125 2.859375 -12.359375q2.859375 -5.421875 7.734375 -8.5q4.890625 -3.078125 10.96875 -3.078125q3.609375 0 6.59375 1.0625q3.0 1.046875 5.234375 2.953125q2.25 1.890625 3.703125 4.359375q1.453125 2.453125 1.796875 5.265625l-2.015625 -0.703125l0 -11.96875l9.15625 0l0 46.203125l-9.15625 0l0 -11.0l2.109375 -0.609375q-0.53125 2.375 -2.15625 4.625q-1.625 2.234375 -4.140625 4.0q-2.5 1.75 -5.546875 2.8125q-3.03125 1.046875 -6.375 1.046875zm2.375 -8.359375q4.140625 0 7.296875 -2.015625q3.171875 -2.03125 4.96875 -5.59375q1.8125 -3.5625 1.8125 -8.140625q0 -4.484375 -1.8125 -8.0q-1.796875 -3.53125 -4.96875 -5.546875q-3.15625 -2.03125 -7.296875 -2.03125q-4.046875 0 -7.171875 2.03125q-3.125 2.015625 -4.9375 5.546875q-1.796875 3.515625 -1.796875 8.0q0 4.578125 1.796875 8.140625q1.8125 3.5625 4.9375 5.59375q3.125 2.015625 7.171875 2.015625zm41.282166 7.484375l0 -57.984375l9.0625 0l0 57.984375l-9.0625 0zm-9.59375 -37.40625l0 -8.796875l29.390625 0l0 8.796875l-29.390625 0zm56.836365 38.28125q-6.421875 0 -11.484375 -3.15625q-5.046875 -3.171875 -8.0 -8.625q-2.953125 -5.46875 -2.953125 -12.234375q0 -6.78125 2.953125 -12.234375q2.953125 -5.453125 8.0 -8.625q5.0625 -3.171875 11.484375 -3.171875q6.171875 0 11.21875 2.515625q5.0625 2.5 7.703125 6.8125l-5.015625 6.15625q-1.40625 -2.015625 -3.609375 -3.6875q-2.1875 -1.671875 -4.65625 -2.640625q-2.46875 -0.96875 -4.75 -0.96875q-4.234375 0 -7.53125 2.078125q-3.296875 2.0625 -5.234375 5.671875q-1.9375 3.609375 -1.9375 8.09375q0 4.484375 2.015625 8.046875q2.03125 3.5625 5.375 5.6875q3.34375 2.109375 7.390625 2.109375q2.375 0 4.625 -0.796875q2.25 -0.796875 4.359375 -2.375q2.109375 -1.59375 3.953125 -3.875l5.015625 6.15625q-2.8125 3.96875 -8.046875 6.515625q-5.234375 2.546875 -10.875 2.546875zm27.470703 -0.875l0 -65.125l9.0625 0l0 28.421875l-1.59375 1.0625q0.890625 -3.078125 3.4375 -5.671875q2.546875 -2.59375 6.0625 -4.21875q3.53125 -1.640625 7.21875 -1.640625q5.28125 0 8.796875 2.078125q3.53125 2.0625 5.28125 6.296875q1.765625 4.21875 1.765625 10.640625l0 28.15625l-9.0625 0l0 -27.546875q0 -3.953125 -1.0625 -6.546875q-1.046875 -2.609375 -3.25 -3.796875q-2.203125 -1.1875 -5.453125 -1.0q-2.640625 0 -4.84375 0.84375q-2.203125 0.828125 -3.828125 2.328125q-1.625 1.484375 -2.546875 3.46875q-0.921875 1.984375 -0.921875 4.265625l0 27.984375l-4.5 0q-1.140625 0 -2.28125 0q-1.140625 0 -2.28125 0z" fill-rule="nonzero"/><path fill="#ffffff" d="m108.01313 148.60493l65.826775 -58.267715l3.0551147 3.433075l-65.826775 58.267715z" fill-rule="evenodd"/><path stroke="#ffffff" stroke-width="1.7401574803149606" stroke-linejoin="round" stroke-linecap="butt" d="m108.01313 148.60493l65.826775 -58.267715l3.0551147 3.433075l-65.826775 58.267715z" fill-rule="evenodd"/><path fill="#ffffff" d="m39.726906 211.62852l64.50394 -59.590546l3.1181107 3.4015656l-64.50394 59.59056z" fill-rule="evenodd"/><path stroke="#ffffff" stroke-width="1.7401574803149606" stroke-linejoin="round" stroke-linecap="butt" d="m39.726906 211.62852l64.50394 -59.590546l3.1181107 3.4015656l-64.50394 59.59056z" fill-rule="evenodd"/><path fill="#ffffff" d="m259.2328 132.7938l59.18112 -64.944885l3.4015503 3.1496048l-59.18109 64.94488z" fill-rule="evenodd"/><path stroke="#ffffff" stroke-width="1.7401574803149606" stroke-linejoin="round" stroke-linecap="butt" d="m259.2328 132.7938l59.18112 -64.944885l3.4015503 3.1496048l-59.18109 64.94488z" fill-rule="evenodd"/><path fill="#ffffff" d="m178.99245 90.355965l80.06297 36.15748l-1.9212341 4.157486l-80.063 -36.157486z" fill-rule="evenodd"/><path stroke="#ffffff" stroke-width="1.7401574803149606" stroke-linejoin="round" stroke-linecap="butt" d="m178.99245 90.355965l80.06297 36.15748l-1.9212341 4.157486l-80.063 -36.157486z" fill-rule="evenodd"/><path fill="#ffffff" d="m98.720795 152.17628l0 0c0 -5.0966644 4.2656326 -9.228348 9.527557 -9.228348l0 0c2.526863 0 4.950241 0.9722748 6.7369995 2.7029266c1.786766 1.7306519 2.7905579 4.0779114 2.7905579 6.525421l0 0c0 5.0966797 -4.2656326 9.228348 -9.527557 9.228348l0 0c-5.2619247 0 -9.527557 -4.131668 -9.527557 -9.228348z" fill-rule="evenodd"/><path stroke="#ffffff" stroke-width="1.7401574803149606" stroke-linejoin="round" stroke-linecap="butt" d="m98.720795 152.17628l0 0c0 -5.0966644 4.2656326 -9.228348 9.527557 -9.228348l0 0c2.526863 0 4.950241 0.9722748 6.7369995 2.7029266c1.786766 1.7306519 2.7905579 4.0779114 2.7905579 6.525421l0 0c0 5.0966797 -4.2656326 9.228348 -9.527557 9.228348l0 0c-5.2619247 0 -9.527557 -4.131668 -9.527557 -9.228348z" fill-rule="evenodd"/><path fill="#ffffff" d="m33.28609 212.45251l0 0c0 -5.0966797 4.2656326 -9.228348 9.527557 -9.228348l0 0c2.526867 0 4.9502373 0.9722748 6.7370033 2.7029266c1.7867622 1.7306519 2.790554 4.0779114 2.790554 6.525421l0 0c0 5.0966797 -4.2656326 9.228348 -9.527557 9.228348l0 0c-5.2619247 0 -9.527557 -4.131668 -9.527557 -9.228348z" fill-rule="evenodd"/><path stroke="#ffffff" stroke-width="1.7401574803149606" stroke-linejoin="round" stroke-linecap="butt" d="m33.28609 212.45251l0 0c0 -5.0966797 4.2656326 -9.228348 9.527557 -9.228348l0 0c2.526867 0 4.9502373 0.9722748 6.7370033 2.7029266c1.7867622 1.7306519 2.790554 4.0779114 2.790554 6.525421l0 0c0 5.0966797 -4.2656326 9.228348 -9.527557 9.228348l0 0c-5.2619247 0 -9.527557 -4.131668 -9.527557 -9.228348z" fill-rule="evenodd"/><path fill="#ffffff" d="m165.96007 92.53147l0 0c0 -5.096672 4.265625 -9.228348 9.527557 -9.228348l0 0c2.5268555 0 4.950241 0.9722748 6.7369995 2.702919c1.7867584 1.7306519 2.7905579 4.077919 2.7905579 6.525429l0 0c0 5.096672 -4.2656403 9.228348 -9.527557 9.228348l0 0c-5.2619324 0 -9.527557 -4.1316757 -9.527557 -9.228348z" fill-rule="evenodd"/><path stroke="#ffffff" stroke-width="1.7401574803149606" stroke-linejoin="round" stroke-linecap="butt" d="m165.96007 92.53147l0 0c0 -5.096672 4.265625 -9.228348 9.527557 -9.228348l0 0c2.5268555 0 4.950241 0.9722748 6.7369995 2.702919c1.7867584 1.7306519 2.7905579 4.077919 2.7905579 6.525429l0 0c0 5.096672 -4.2656403 9.228348 -9.527557 9.228348l0 0c-5.2619324 0 -9.527557 -4.1316757 -9.527557 -9.228348z" fill-rule="evenodd"/><path fill="#ffffff" d="m249.86758 131.35243l0 0c0 -5.096672 4.265625 -9.228348 9.527557 -9.228348l0 0c2.5268555 0 4.950226 0.9722748 6.7369995 2.7029266c1.7867737 1.7306442 2.7905579 4.0779114 2.7905579 6.525421l0 0c0 5.0966797 -4.265625 9.228348 -9.527557 9.228348l0 0c-5.2619324 0 -9.527557 -4.131668 -9.527557 -9.228348z" fill-rule="evenodd"/><path stroke="#ffffff" stroke-width="1.7401574803149606" stroke-linejoin="round" stroke-linecap="butt" d="m249.86758 131.35243l0 0c0 -5.096672 4.265625 -9.228348 9.527557 -9.228348l0 0c2.5268555 0 4.950226 0.9722748 6.7369995 2.7029266c1.7867737 1.7306442 2.7905579 4.0779114 2.7905579 6.525421l0 0c0 5.0966797 -4.265625 9.228348 -9.527557 9.228348l0 0c-5.2619324 0 -9.527557 -4.131668 -9.527557 -9.228348z" fill-rule="evenodd"/><path fill="#ffffff" d="m310.0788 70.173225l0 0c0 -5.096672 4.265625 -9.228344 9.527557 -9.228344l0 0c2.5268555 0 4.950226 0.97227097 6.7369995 2.702919c1.7867432 1.7306557 2.7905579 4.077915 2.7905579 6.525425l0 0c0 5.0966797 -4.265625 9.228348 -9.527557 9.228348l0 0c-5.2619324 0 -9.527557 -4.131668 -9.527557 -9.228348z" fill-rule="evenodd"/><path stroke="#ffffff" stroke-width="1.7401574803149606" stroke-linejoin="round" stroke-linecap="butt" d="m310.0788 70.173225l0 0c0 -5.096672 4.265625 -9.228344 9.527557 -9.228344l0 0c2.5268555 0 4.950226 0.97227097 6.7369995 2.702919c1.7867432 1.7306557 2.7905579 4.077915 2.7905579 6.525425l0 0c0 5.0966797 -4.265625 9.228348 -9.527557 9.228348l0 0c-5.2619324 0 -9.527557 -4.131668 -9.527557 -9.228348z" fill-rule="evenodd"/></g></svg>