<svg version="1.1"  viewBox="0.0 0.0 587.8635170603675 105.60104986876641" fill="none" stroke="none" stroke-linecap="square" stroke-miterlimit="10" xmlns:xlink="http://www.w3.org/1999/xlink" xmlns="http://www.w3.org/2000/svg"><clipPath id="p.0"><path d="m0 0l587.8635 0l0 105.60105l-587.8635 0l0 -105.60105z" clip-rule="nonzero"/></clipPath><g clip-path="url(#p.0)"><path fill="#000000" fill-opacity="0.0" d="m0 0l587.8635 0l0 105.60105l-587.8635 0z" fill-rule="evenodd"/><path fill="#fc6668" d="m7.2388453 17.005089l0 0c0 -7.187093 5.8262906 -13.013384 13.013384 -13.013384l52.05197 0l0 0c3.4513702 0 6.7613754 1.3710489 9.201851 3.811532c2.440483 2.4404826 3.8115387 5.750488 3.8115387 9.201851l0 54.06772c0 7.1870956 -5.826294 13.01339 -13.01339 13.01339l-52.05197 0c-7.1870937 0 -13.013384 -5.826294 -13.013384 -13.01339z" fill-rule="evenodd"/><path fill="#fc6668" d="m195.71234 17.341656l0 0c0 -7.3726416 5.9767 -13.349348 13.34935 -13.349348l358.21466 0c3.5404663 0 6.935913 1.406445 9.439392 3.9099336c2.50354 2.503488 3.9099731 5.8989472 3.9099731 9.439415l0 53.395794c0 7.3726425 -5.9767456 13.349342 -13.349365 13.349342l-358.21466 0l0 0c-7.37265 0 -13.34935 -5.9767 -13.34935 -13.349342z" fill-rule="evenodd"/><path fill="#fc6668" d="m171.81119 22.975962l28.614166 -19.007875l28.614166 0l-57.228333 38.015747z" fill-rule="evenodd"/><path fill="#fc6668" d="m77.01656 22.971401l28.614174 19.007874l28.614166 0l-57.22834 -38.015747z" fill-rule="evenodd"/><path fill="#fc6668" d="m77.01656 17.160873l148.25198 0l0 54.645668l-148.25198 0z" fill-rule="evenodd"/><path fill="#fc6668" d="m81.09953 41.97877l120.66141 0l0 42.110233l-120.66141 0z" fill-rule="evenodd"/><path fill="#fc6668" d="m60.553844 3.9834385l16.440945 0l0 2.929134l-16.440945 0z" fill-rule="evenodd"/><path fill="#fc6668" d="m66.983315 81.15443l16.440948 0l0 2.9291306l-16.440948 0z" fill-rule="evenodd"/><path fill="#fc6668" d="m103.81008 82.62187l-28.614166 -19.007874l-28.614178 0l57.228344 38.015747z" fill-rule="evenodd"/><path fill="#fc6668" d="m182.22867 82.62061l28.614182 -19.007877l28.614166 0l-57.228348 38.01575z" fill-rule="evenodd"/><path fill="#fc6668" d="m103.81107 76.81872l78.4567 0l0 24.818901l-78.4567 0z" fill-rule="evenodd"/></g></svg>