<svg version="1.1" width="300" height="150" viewBox="0.0 0.0 792.4698162729659 792.0" fill="none" stroke="none" stroke-linecap="square" stroke-miterlimit="10" xmlns:xlink="http://www.w3.org/1999/xlink" xmlns="http://www.w3.org/2000/svg"><clipPath id="p.0"><path d="m0 0l792.4698 0l0 792.0l-792.4698 0l0 -792.0z" clip-rule="nonzero"/></clipPath><g clip-path="url(#p.0)"><path fill="#000000" fill-opacity="0.0" d="m0 0l792.4698 0l0 792.0l-792.4698 0z" fill-rule="evenodd"/><path fill="#cccccc" d="m0 195.77953l3.5817276E-14 0c108.126045 0 195.77953 -87.65348 195.77953 -195.77953l1.448822 0l0 2.3976077E-14c0 108.126045 87.65349 195.77953 195.77953 195.77953l0 0l0 0c-108.12604 0 -195.77953 87.65349 -195.77953 195.77953l-1.448822 0l0 0c0 -108.12604 -87.65348 -195.77953 -195.77953 -195.77953z" fill-rule="evenodd"/><path fill="#cccccc" d="m393.00787 195.77953l0 0c108.12604 0 195.77954 -87.65348 195.77954 -195.77953l1.4487915 0l0 2.3976077E-14c0 108.126045 87.6535 195.77953 195.77954 195.77953l0 0l0 0c-108.12604 0 -195.77954 87.65349 -195.77954 195.77953l-1.4487915 0l0 0c0 -108.12604 -87.6535 -195.77953 -195.77954 -195.77953z" fill-rule="evenodd"/><path fill="#cccccc" d="m393.00787 587.3332l0 0c108.12604 0 195.77954 -87.6535 195.77954 -195.77954l1.4487915 0l0 0c0 108.12604 87.6535 195.77954 195.77954 195.77954l0 0l0 0c-108.12604 0 -195.77954 87.65344 -195.77954 195.77954l-1.4487915 0l0 0c0 -108.1261 -87.6535 -195.77954 -195.77954 -195.77954z" fill-rule="evenodd"/><path fill="#cccccc" d="m0 587.3332l3.5817276E-14 0c108.126045 0 195.77953 -87.6535 195.77953 -195.77954l1.448822 0l0 0c0 108.12604 87.65349 195.77954 195.77953 195.77954l0 0l0 0c-108.12604 0 -195.77953 87.65344 -195.77953 195.77954l-1.448822 0l0 0c0 -108.1261 -87.65348 -195.77954 -195.77953 -195.77954z" fill-rule="evenodd"/><path fill="#cccccc" d="m0.48818898 -8.39895E-6l792.4725 0l0 196.66142l-792.4725 0z" fill-rule="evenodd"/><path fill="#cccccc" d="m196.37534 18.750656l0 768.8819l-196.37796 0l0 -768.8819z" fill-rule="evenodd"/><path fill="#cccccc" d="m0 587.45404l792.4724 0l0 204.3465l-792.4724 0z" fill-rule="evenodd"/><path fill="#cccccc" d="m792.96063 18.750656l0 773.03937l-203.87402 0l0 -773.03937z" fill-rule="evenodd"/></g></svg>