<svg version="1.1" viewBox="0.0 0.0 663.9422572178478 159.35958005249344" fill="none" stroke="none" stroke-linecap="square" stroke-miterlimit="10" xmlns:xlink="http://www.w3.org/1999/xlink" xmlns="http://www.w3.org/2000/svg"><clipPath id="p.0"><path d="m0 0l663.94226 0l0 159.35957l-663.94226 0l0 -159.35957z" clip-rule="nonzero"/></clipPath><g clip-path="url(#p.0)"><path fill="#000000" fill-opacity="0.0" d="m0 0l663.94226 0l0 159.35957l-663.94226 0z" fill-rule="evenodd"/><path fill="#fc6668" d="m0 15.016048l0 0c0 -8.285887 6.717038 -15.002925 15.002925 -15.002925l60.0099 0l0 0c3.9790192 0 7.7950745 1.5806607 10.608665 4.3942547c2.8135986 2.8135943 4.3942566 6.6296473 4.3942566 10.60867l0 97.14375c0 8.285889 -6.717041 15.002922 -15.002922 15.002922l-60.0099 0c-8.285887 0 -15.002925 -6.7170334 -15.002925 -15.002922z" fill-rule="evenodd"/><path fill="#fc6668" d="m209.49869 21.205149l0 0c0 -11.704033 9.487991 -21.192026 21.192032 -21.192026l409.6159 0c5.6204834 0 11.010742 2.232725 14.985046 6.2070003c3.9743042 3.974275 6.20697 9.36455 6.20697 14.985025l0 84.76556c0 11.704033 -9.487976 21.192024 -21.192017 21.192024l-409.6159 0c-11.704041 0 -21.192032 -9.487991 -21.192032 -21.192024z" fill-rule="evenodd"/><path fill="#fc6668" d="m184.49869 30.170603l33.007874 -30.15748l33.007874 0l-66.01575 60.31496z" fill-rule="evenodd"/><path fill="#fc6668" d="m80.49869 30.157156l33.007874 30.15748l33.007874 0l-66.01575 -60.31496z" fill-rule="evenodd"/><path fill="#fc6668" d="m80.49869 20.917875l171.02362 0l0 86.77165l-171.02362 0z" fill-rule="evenodd"/><path fill="#fc6668" d="m114.12861 128.55412l-33.007874 -30.15747l-33.007874 0l66.01575 60.314957z" fill-rule="evenodd"/><path fill="#fc6668" d="m200.39896 128.55412l33.007874 -30.15747l33.007874 0l-66.01575 60.314957z" fill-rule="evenodd"/><path fill="#fc6668" d="m85.20998 60.314636l133.79527 0l0 66.83465l-133.79527 0z" fill-rule="evenodd"/><path fill="#fc6668" d="m114.12861 126.08399l86.26772 0l0 32.62992l-86.26772 0z" fill-rule="evenodd"/><path fill="#fc6668" d="m98.56693 109.03932l115.9685 0l0 29.480316l-115.9685 0z" fill-rule="evenodd"/><path fill="#fc6668" d="m87.91601 130.41995l136.47244 0l-27.294495 27.320206l-81.88347 0z" fill-rule="evenodd"/><path fill="#fc6668" d="m61.50656 0l18.992126 0l0 4.6614175l-18.992126 0z" fill-rule="evenodd"/><path fill="#fc6668" d="m68.92388 122.50131l18.992126 0l0 4.661415l-18.992126 0z" fill-rule="evenodd"/><path fill="#ffffff" d="m594.0735 88.11149l-36.283447 -36.283466l24.18872 0l12.094727 12.09473l12.094727 -12.09473l24.18872 0z" fill-rule="evenodd"/></g></svg>