<svg version="1.1" viewBox="0.0 0.0 480.0 480.0" fill="none" stroke="none" stroke-linecap="square" stroke-miterlimit="10" xmlns:xlink="http://www.w3.org/1999/xlink" xmlns="http://www.w3.org/2000/svg"><clipPath id="p.0"><path d="m0 0l480.0 0l0 480.0l-480.0 0l0 -480.0z" clip-rule="nonzero"/></clipPath><g clip-path="url(#p.0)"><path fill="#000000" fill-opacity="0.0" d="m0 0l480.0 0l0 480.0l-480.0 0z" fill-rule="evenodd"/><path fill="#000000" fill-opacity="0.0" d="m142.49869 17.148294l0 445.7008l-112.0 0l0 -445.7008z" fill-rule="evenodd"/><path fill="#000000" d="m78.656815 70.24673l-1.734375 6.828125q-8.390625 -2.15625 -12.8125 -7.734375q-4.40625 -5.5625 -4.40625 -13.609375q0 -8.328125 3.390625 -13.5625q3.390625 -5.21875 9.828125 -7.9375q6.4375 -2.718748 13.8125 -2.718748q8.046875 0 14.046875 3.062498q6.0 3.078125 9.109375 8.75q3.109375 5.6875 3.109375 12.515625q0 7.734375 -3.9375 13.0q-3.9375 5.28125 -11.078125 7.34375l-1.578125 -6.703125q5.625 -1.796875 8.1875 -5.21875q2.5625 -3.40625 2.5625 -8.5625q0 -5.953125 -2.84375 -9.9375q-2.84375 -3.984375 -7.640625 -5.609375q-4.796875 -1.609375 -9.90625 -1.609375q-6.5625 0 -11.46875 1.90625q-4.90625 1.921875 -7.34375 5.953125q-2.421875 4.046875 -2.421875 8.765625q0 5.734375 3.296875 9.703125q3.3125 3.96875 9.828125 5.375zm-18.078125 14.277344l51.546875 0l0 6.328125l-51.546875 0l0 -6.328125zm4.609375 40.496094q-2.984375 -3.515625 -4.21875 -6.765625q-1.234375 -3.25 -1.234375 -6.984375q0 -6.140625 3.0 -9.453125q3.015625 -3.296875 7.6875 -3.296875q2.75 0 5.015625 1.234375q2.265625 1.25 3.625 3.265625q1.375 2.03125 2.078125 4.5625q0.5 1.859375 0.953125 5.625q0.921875 7.671875 2.1875 11.28125q1.296875 0.046875 1.640625 0.046875q3.875 0 5.453125 -1.796875q2.140625 -2.421875 2.140625 -7.203125q0 -4.46875 -1.5625 -6.59375q-1.5625 -2.125 -5.53125 -3.15625l0.84375 -6.1875q3.96875 0.84375 6.40625 2.78125q2.453125 1.9375 3.765625 5.59375q1.328125 3.65625 1.328125 8.46875q0 4.78125 -1.125 7.765625q-1.125 3.0 -2.84375 4.4062576q-1.703125 1.40625 -4.296875 1.96875q-1.625 0.3125 -5.84375 0.3125l-8.4375 0q-8.8125 0 -11.15625 0.40625q-2.34375 0.40625 -4.484375 1.59375l0 -6.6093826q1.96875 -0.984375 4.609375 -1.265625zm14.125 -0.53125q-1.40625 -3.4375 -2.390625 -10.328125q-0.5625 -3.90625 -1.265625 -5.53125q-0.703125 -1.609375 -2.0625 -2.484375q-1.34375 -0.875 -3.0 -0.875q-2.53125 0 -4.21875 1.90625q-1.6875 1.921875 -1.6875 5.609375q0 3.65625 1.59375 6.5q1.609375 2.859375 4.390625 4.1875q2.140625 1.015625 6.328125 1.015625l2.3125 0zm-7.59375 13.683601l0.984375 6.25q-3.75 0.53125 -5.765625 2.9375q-2.0 2.40625 -2.0 6.734375q0 4.359375 1.765625 6.46875q1.78125 2.109375 4.171875 2.109375q2.15625 0 3.375 -1.859375q0.84375 -1.296875 2.15625 -6.46875q1.75 -6.96875 3.03125 -9.65625q1.28125 -2.6875 3.546875 -4.078125q2.28125 -1.390625 5.015625 -1.390625q2.5 0 4.625 1.140625q2.125 1.15625 3.53125 3.125q1.09375 1.46875 1.84375 4.015625q0.765625 2.546875 0.765625 5.46875q0 4.390625 -1.265625 7.71875q-1.265625 3.328125 -3.4375 4.90625q-2.15625 1.578125 -5.78125 2.171875l-0.84375 -6.1875q2.890625 -0.421875 4.5 -2.4375q1.625 -2.015625 1.625 -5.71875q0 -4.359375 -1.453125 -6.21875q-1.4375 -1.859375 -3.375 -1.859375q-1.21875 0 -2.203125 0.765625q-1.03125 0.78125 -1.6875 2.4375q-0.359375 0.9375 -1.625 5.578125q-1.796875 6.71875 -2.9375 9.375q-1.140625 2.65625 -3.328125 4.15625q-2.171875 1.515625 -5.40625 1.515625q-3.15625 0 -5.953125 -1.84375q-2.796875 -1.84375 -4.328125 -5.328125q-1.53125 -3.46875 -1.53125 -7.875q0 -7.265625 3.015625 -11.09375q3.03125 -3.8125 8.96875 -4.859375zm0 36.0l0.984375 6.25q-3.75 0.53125 -5.765625 2.9375q-2.0 2.40625 -2.0 6.734375q0 4.359375 1.765625 6.46875q1.78125 2.109375 4.171875 2.109375q2.15625 0 3.375 -1.859375q0.84375 -1.296875 2.15625 -6.46875q1.75 -6.96875 3.03125 -9.65625q1.28125 -2.6875 3.546875 -4.078125q2.28125 -1.390625 5.015625 -1.390625q2.5 0 4.625 1.140625q2.125 1.15625 3.53125 3.125q1.09375 1.46875 1.84375 4.015625q0.765625 2.546875 0.765625 5.46875q0 4.390625 -1.265625 7.71875q-1.265625 3.328125 -3.4375 4.90625q-2.15625 1.578125 -5.78125 2.171875l-0.84375 -6.1875q2.890625 -0.421875 4.5 -2.4375q1.625 -2.015625 1.625 -5.71875q0 -4.359375 -1.453125 -6.21875q-1.4375 -1.859375 -3.375 -1.859375q-1.21875 0 -2.203125 0.765625q-1.03125 0.78125 -1.6875 2.4375q-0.359375 0.9375 -1.625 5.578125q-1.796875 6.71875 -2.9375 9.375q-1.140625 2.65625 -3.328125 4.15625q-2.171875 1.515625 -5.40625 1.515625q-3.15625 0 -5.953125 -1.84375q-2.796875 -1.84375 -4.328125 -5.328125q-1.53125 -3.46875 -1.53125 -7.875q0 -7.265625 3.015625 -11.09375q3.03125 -3.8125 8.96875 -4.859375zm33.125 38.5625l7.28125 0l0 6.328125l-7.28125 0l0 -6.328125zm-44.265625 0l37.34375 0l0 6.328125l-37.34375 0l0 -6.328125zm0 17.480469l32.421875 0l0 -5.59375l4.921875 0l0 5.59375l3.96875 0q3.765625 0 5.59375 0.65625q2.453125 0.921875 3.984375 3.21875q1.53125 2.3125 1.53125 6.453125q0 2.671875 -0.640625 5.90625l-5.515625 -0.953125q0.359375 -1.96875 0.359375 -3.71875q0 -2.890625 -1.234375 -4.09375q-1.234375 -1.1875 -4.609375 -1.1875l-3.4375 0l0 7.28125l-4.921875 0l0 -7.28125l-32.421875 0l0 -6.28125zm44.265625 18.519531l7.28125 0l0 6.328125l-7.28125 0l0 -6.328125zm-44.265625 0l37.34375 0l0 6.328125l-37.34375 0l0 -6.328125zm13.671875 40.32422l-0.796875 6.21875q-6.4375 -1.015625 -10.078125 -5.21875q-3.640625 -4.203125 -3.640625 -10.3125q0 -7.671875 5.0 -12.328125q5.015625 -4.65625 14.375 -4.65625q6.046875 0 10.578125 2.0q4.53125 2.015625 6.796875 6.109375q2.28125 4.09375 2.28125 8.90625q0 6.078125 -3.078125 9.9375q-3.078125 3.875 -8.734375 4.96875l-0.953125 -6.15625q3.765625 -0.875 5.65625 -3.109375q1.90625 -2.234375 1.90625 -5.390625q0 -4.78125 -3.4375 -7.78125q-3.421875 -2.984375 -10.84375 -2.984375q-7.515625 0 -10.9375 2.875q-3.40625 2.890625 -3.40625 7.53125q0 3.734375 2.28125 6.21875q2.296875 2.5 7.03125 3.171875zm-9.0625 36.0q-2.984375 -3.515625 -4.21875 -6.765625q-1.234375 -3.25 -1.234375 -6.984375q0 -6.140625 3.0 -9.453125q3.015625 -3.296875 7.6875 -3.296875q2.75 0 5.015625 1.234375q2.265625 1.25 3.625 3.265625q1.375 2.03125 2.078125 4.5625q0.5 1.859375 0.953125 5.625q0.921875 7.671875 2.1875 11.28125q1.296875 0.046875 1.640625 0.046875q3.875 0 5.453125 -1.796875q2.140625 -2.421875 2.140625 -7.203125q0 -4.46875 -1.5625 -6.59375q-1.5625 -2.125 -5.53125 -3.15625l0.84375 -6.1875q3.96875 0.84375 6.40625 2.78125q2.453125 1.9375 3.765625 5.59375q1.328125 3.65625 1.328125 8.46875q0 4.78125 -1.125 7.765625q-1.125 3.0 -2.84375 4.40625q-1.703125 1.40625 -4.296875 1.96875q-1.625 0.3125 -5.84375 0.3125l-8.4375 0q-8.8125 0 -11.15625 0.40625q-2.34375 0.40625 -4.484375 1.59375l0 -6.609375q1.96875 -0.984375 4.609375 -1.265625zm14.125 -0.53125q-1.40625 -3.4375 -2.390625 -10.328125q-0.5625 -3.90625 -1.265625 -5.53125q-0.703125 -1.609375 -2.0625 -2.484375q-1.34375 -0.875 -3.0 -0.875q-2.53125 0 -4.21875 1.90625q-1.6875 1.921875 -1.6875 5.609375q0 3.65625 1.59375 6.5q1.609375 2.859375 4.390625 4.1875q2.140625 1.015625 6.328125 1.015625l2.3125 0zm-13.078125 30.027344l-5.578125 0.921875q-0.578125 -2.671875 -0.578125 -4.78125q0 -3.453125 1.09375 -5.359375q1.09375 -1.890625 2.859375 -2.671875q1.78125 -0.765625 7.484375 -0.765625l21.484375 0l0 -4.640625l4.921875 0l0 4.640625l9.234375 0l3.796875 6.296875l-13.03125 0l0 6.359375l-4.921875 0l0 -6.359375l-21.84375 0q-2.703125 0 -3.484375 0.328125q-0.765625 0.34375 -1.21875 1.09375q-0.453125 0.75 -0.453125 2.15625q0 1.0625 0.234375 2.78125zm38.609375 6.2226562l7.28125 0l0 6.328125l-7.28125 0l0 -6.328125zm-44.265625 0l37.34375 0l0 6.328125l-37.34375 0l0 -6.328125zm18.671875 13.605469q10.375 0 15.359375 5.765625q4.15625 4.8125 4.15625 11.75q0 7.6875 -5.046875 12.578125q-5.046875 4.890625 -13.9375 4.890625q-7.21875 0 -11.34375 -2.171875q-4.125 -2.15625 -6.421875 -6.296875q-2.28125 -4.125 -2.28125 -9.0q0 -7.84375 5.03125 -12.6875q5.03125 -4.828125 14.484375 -4.828125zm0 6.5q-7.171875 0 -10.75 3.125q-3.5625 3.140625 -3.5625 7.890625q0 4.703125 3.578125 7.828125q3.59375 3.140625 10.9375 3.140625q6.9375 0 10.5 -3.15625q3.5625 -3.140625 3.5625 -7.8125q0 -4.75 -3.546875 -7.890625q-3.546875 -3.125 -10.71875 -3.125zm-18.671875 35.902344l37.34375 0l0 5.6875l-5.3125 0q6.15625 4.125 6.15625 11.890625q0 3.375 -1.21875 6.203125q-1.21875 2.828125 -3.1875 4.234375q-1.96875 1.40625 -4.671875 1.96875q-1.75 0.359375 -6.15625 0.359375l-22.953125 0l0 -6.328125l22.71875 0q3.859375 0 5.765625 -0.75q1.921875 -0.734375 3.0625 -2.625q1.15625 -1.875 1.15625 -4.40625q0 -4.03125 -2.578125 -6.96875q-2.5625 -2.9375 -9.734375 -2.9375l-20.390625 0l0 -6.328125z" fill-rule="nonzero"/><path fill="#000000" fill-opacity="0.0" d="m370.99475 29.148294l0 0c43.356537 0 78.50394 41.41543 78.50394 92.50394l0 0c0 51.08851 -35.1474 92.503944 -78.50394 92.503944l0 0c-43.356537 0 -78.50394 -41.415436 -78.50394 -92.503944l0 0c0 -51.08851 35.1474 -92.50394 78.50394 -92.50394z" fill-rule="evenodd"/><path stroke="#000000" stroke-width="4.0" stroke-linejoin="round" stroke-linecap="butt" d="m370.99475 29.148294l0 0c43.356537 0 78.50394 41.41543 78.50394 92.50394l0 0c0 51.08851 -35.1474 92.503944 -78.50394 92.503944l0 0c-43.356537 0 -78.50394 -41.415436 -78.50394 -92.503944l0 0c0 -51.08851 35.1474 -92.50394 78.50394 -92.50394z" fill-rule="evenodd"/><path fill="#000000" fill-opacity="0.0" d="m316.99475 246.1483l0 0c43.356537 0 78.50394 41.41542 78.50394 92.50392l0 0c0 51.08853 -35.1474 92.50394 -78.50394 92.50394l0 0c-43.356537 0 -78.50394 -41.415405 -78.50394 -92.50394l0 0c0 -51.0885 35.1474 -92.50392 78.50394 -92.50392z" fill-rule="evenodd"/><path stroke="#000000" stroke-width="4.0" stroke-linejoin="round" stroke-linecap="butt" d="m316.99475 246.1483l0 0c43.356537 0 78.50394 41.41542 78.50394 92.50392l0 0c0 51.08853 -35.1474 92.50394 -78.50394 92.50394l0 0c-43.356537 0 -78.50394 -41.415405 -78.50394 -92.50394l0 0c0 -51.0885 35.1474 -92.50392 78.50394 -92.50392z" fill-rule="evenodd"/><path fill="#000000" fill-opacity="0.0" d="m182.49081 141.79396l0 0c30.927948 0 56.0 35.224976 56.0 78.67717l0 0c0 43.45221 -25.072052 78.677155 -56.0 78.677155l0 0c-30.927948 0 -56.0 -35.224945 -56.0 -78.677155l0 0c0 -43.452194 25.072052 -78.67717 56.0 -78.67717z" fill-rule="evenodd"/><path stroke="#000000" stroke-width="4.0" stroke-linejoin="round" stroke-linecap="butt" d="m182.49081 141.79396l0 0c30.927948 0 56.0 35.224976 56.0 78.67717l0 0c0 43.45221 -25.072052 78.677155 -56.0 78.677155l0 0c-30.927948 0 -56.0 -35.224945 -56.0 -78.677155l0 0c0 -43.452194 25.072052 -78.67717 56.0 -78.67717z" fill-rule="evenodd"/><path fill="#000000" d="m411.4987 64.14829l0 52.0l-36.0 0l0 -52.0z" fill-rule="evenodd"/><path stroke="#000000" stroke-width="4.0" stroke-linejoin="round" stroke-linecap="butt" d="m411.4987 64.14829l0 52.0l-36.0 0l0 -52.0z" fill-rule="evenodd"/><path fill="#000000" d="m383.4987 134.1483l0 52.0l-36.0 0l0 -52.0z" fill-rule="evenodd"/><path stroke="#000000" stroke-width="4.0" stroke-linejoin="round" stroke-linecap="butt" d="m383.4987 134.1483l0 52.0l-36.0 0l0 -52.0z" fill-rule="evenodd"/><path fill="#000000" d="m353.4987 70.14829l0 52.0l-36.0 0l0 -52.0z" fill-rule="evenodd"/><path stroke="#000000" stroke-width="4.0" stroke-linejoin="round" stroke-linecap="butt" d="m353.4987 70.14829l0 52.0l-36.0 0l0 -52.0z" fill-rule="evenodd"/><path fill="#000000" d="m317.4987 268.1483l53.007874 30.0l-53.007874 30.0z" fill-rule="evenodd"/><path stroke="#000000" stroke-width="4.0" stroke-linejoin="round" stroke-linecap="butt" d="m317.4987 268.1483l53.007874 30.0l-53.007874 30.0z" fill-rule="evenodd"/><path fill="#000000" d="m317.4987 354.1483l53.007874 30.0l-53.007874 30.0z" fill-rule="evenodd"/><path stroke="#000000" stroke-width="4.0" stroke-linejoin="round" stroke-linecap="butt" d="m317.4987 354.1483l53.007874 30.0l-53.007874 30.0z" fill-rule="evenodd"/><path fill="#000000" d="m255.98688 308.65222l53.007874 30.0l-53.007874 30.0z" fill-rule="evenodd"/><path stroke="#000000" stroke-width="4.0" stroke-linejoin="round" stroke-linecap="butt" d="m255.98688 308.65222l53.007874 30.0l-53.007874 30.0z" fill-rule="evenodd"/><path fill="#000000" d="m189.00262 166.1483l26.503937 30.0l-26.503937 30.0l-26.503937 -30.0z" fill-rule="evenodd"/><path stroke="#000000" stroke-width="1.0" stroke-linejoin="round" stroke-linecap="butt" d="m189.00262 166.1483l26.503937 30.0l-26.503937 30.0l-26.503937 -30.0z" fill-rule="evenodd"/><path fill="#000000" d="m169.00262 226.1483l26.503937 29.999985l-26.503937 30.0l-26.503937 -30.0z" fill-rule="evenodd"/><path stroke="#000000" stroke-width="1.0" stroke-linejoin="round" stroke-linecap="butt" d="m169.00262 226.1483l26.503937 29.999985l-26.503937 30.0l-26.503937 -30.0z" fill-rule="evenodd"/></g></svg>