<svg version="1.1" viewBox="0.0 0.0 428.16010498687666 428.4488188976378" fill="none" stroke="none" stroke-linecap="square" stroke-miterlimit="10" xmlns:xlink="http://www.w3.org/1999/xlink" xmlns="http://www.w3.org/2000/svg"><clipPath id="p.0"><path d="m0 0l428.1601 0l0 428.44882l-428.1601 0l0 -428.44882z" clip-rule="nonzero"/></clipPath><g clip-path="url(#p.0)"><path fill="#000000" fill-opacity="0.0" d="m0 0l428.1601 0l0 428.44882l-428.1601 0z" fill-rule="evenodd"/><defs><linearGradient id="p.1" gradientUnits="userSpaceOnUse" gradientTransform="matrix(-14.32911697702346 0.0 0.0 -14.32911697702346 0.0 0.0)" spreadMethod="pad" x1="-27.926178630309707" y1="-22.114871835717615" x2="-27.92623014702058" y2="-7.785754858786759"><stop offset="0.0" stop-color="#476eae"/><stop offset="0.29" stop-color="#48b3af"/><stop offset="0.61" stop-color="#72dd59"/><stop offset="1.0" stop-color="#009663"/></linearGradient></defs><path fill="url(#p.1)" d="m400.15747 214.22441l0 0c0 56.69832 -46.160492 102.66142 -103.102356 102.66142l0 0c-27.344452 0 -53.56894 -10.816101 -72.90437 -30.068848c-19.33545 -19.252747 -30.197983 -45.36508 -30.197983 -72.592575l0 0c0 -56.698334 46.160492 -102.661415 103.102356 -102.661415l0 0c56.941864 0 103.102356 45.96308 103.102356 102.661415z" fill-rule="evenodd"/><path fill="#000000" fill-opacity="0.0" d="m148.45145 0.8858307l0 426.67715l-104.44095 0l0 -426.67715z" fill-rule="evenodd"/><path fill="#000000" d="m88.52535 92.82883l-1.6875 6.703125q-8.25 -2.109375 -12.578125 -7.578125q-4.328125 -5.46875 -4.328125 -13.359375q0 -8.1875 3.328125 -13.3125q3.328125 -5.125004 9.640625 -7.796879q6.3125 -2.671875 13.5625 -2.671875q7.890625 0 13.765625 3.015625q5.890625 3.03125 8.9375 8.593754q3.0625 5.578125 3.0625 12.265625q0 7.59375 -3.859375 12.765625q-3.859375 5.171875 -10.875 7.21875l-1.546875 -6.59375q5.515625 -1.765625 8.03125 -5.109375q2.53125 -3.34375 2.53125 -8.421875q0 -5.828125 -2.796875 -9.75q-2.796875 -3.90625 -7.515625 -5.500004q-4.703125 -1.578125 -9.703125 -1.578125q-6.453125 0 -11.265625 1.875q-4.8125 1.8750038 -7.203125 5.843754q-2.375 3.96875 -2.375 8.59375q0 5.625 3.234375 9.515625q3.25 3.90625 9.640625 5.28125zm-17.734375 14.010056l50.578125 0l0 6.21875l-50.578125 0l0 -6.21875zm4.515625 39.74443q-2.921875 -3.453125 -4.140625 -6.640625q-1.203125 -3.1875 -1.203125 -6.84375q0 -6.046875 2.953125 -9.296875q2.953125 -3.234375 7.53125 -3.234375q2.6875 0 4.90625 1.21875q2.234375 1.234375 3.578125 3.21875q1.359375 1.984375 2.046875 4.46875q0.484375 1.828125 0.921875 5.515625q0.90625 7.53125 2.140625 11.078125q1.28125 0.03125 1.625 0.03125q3.796875 0 5.34375 -1.75q2.109375 -2.390625 2.109375 -7.078125q0 -4.375 -1.546875 -6.46875q-1.53125 -2.09375 -5.421875 -3.09375l0.828125 -6.0625q3.890625 0.828125 6.28125 2.71875q2.40625 1.90625 3.703125 5.484375q1.296875 3.59375 1.296875 8.3125q0 4.703125 -1.109375 7.625q-1.09375 2.9375 -2.78125 4.3125q-1.671875 1.390625 -4.21875 1.9375q-1.59375 0.3125 -5.734375 0.3125l-8.265625 0q-8.671875 0 -10.96875 0.390625q-2.28125 0.40625 -4.390625 1.578125l0 -6.484375q1.9375 -0.96875 4.515625 -1.25zm13.875 -0.515625q-1.375 -3.375 -2.34375 -10.140625q-0.5625 -3.828125 -1.25 -5.421875q-0.6875 -1.578125 -2.015625 -2.453125q-1.328125 -0.859375 -2.953125 -0.859375q-2.484375 0 -4.140625 1.875q-1.65625 1.890625 -1.65625 5.515625q0 3.578125 1.5625 6.375q1.578125 2.796875 4.3125 4.109375q2.09375 1.0 6.203125 1.0l2.28125 0zm-7.453125 13.420639l0.96875 6.140625q-3.6875 0.515625 -5.65625 2.875q-1.96875 2.375 -1.96875 6.609375q0 4.28125 1.734375 6.34375q1.75 2.078125 4.09375 2.078125q2.109375 0 3.3125 -1.828125q0.828125 -1.28125 2.109375 -6.34375q1.71875 -6.828125 2.96875 -9.46875q1.265625 -2.640625 3.484375 -4.015625q2.234375 -1.359375 4.921875 -1.359375q2.453125 0 4.53125 1.125q2.09375 1.125 3.484375 3.0625q1.0625 1.4375 1.796875 3.9375q0.75 2.5 0.75 5.375q0 4.3125 -1.25 7.5625q-1.234375 3.265625 -3.359375 4.8125q-2.125 1.5625 -5.671875 2.140625l-0.828125 -6.0625q2.828125 -0.421875 4.40625 -2.40625q1.59375 -1.984375 1.59375 -5.609375q0 -4.265625 -1.421875 -6.09375q-1.40625 -1.828125 -3.296875 -1.828125q-1.21875 0 -2.171875 0.75q-1.015625 0.765625 -1.65625 2.375q-0.359375 0.9375 -1.59375 5.5q-1.765625 6.578125 -2.890625 9.1875q-1.109375 2.609375 -3.25 4.09375q-2.140625 1.484375 -5.3125 1.484375q-3.109375 0 -5.859375 -1.8125q-2.734375 -1.8125 -4.234375 -5.234375q-1.5 -3.40625 -1.5 -7.71875q0 -7.15625 2.96875 -10.90625q2.96875 -3.734375 8.796875 -4.765625zm0 35.328125l0.96875 6.140625q-3.6875 0.515625 -5.65625 2.875q-1.96875 2.375 -1.96875 6.609375q0 4.28125 1.734375 6.34375q1.75 2.078125 4.09375 2.078125q2.109375 0 3.3125 -1.828125q0.828125 -1.28125 2.109375 -6.34375q1.71875 -6.828125 2.96875 -9.46875q1.265625 -2.640625 3.484375 -4.015625q2.234375 -1.359375 4.921875 -1.359375q2.453125 0 4.53125 1.125q2.09375 1.125 3.484375 3.0625q1.0625 1.4375 1.796875 3.9375q0.75 2.5 0.75 5.375q0 4.3125 -1.25 7.5625q-1.234375 3.265625 -3.359375 4.8125q-2.125 1.5625 -5.671875 2.140625l-0.828125 -6.0625q2.828125 -0.421875 4.40625 -2.40625q1.59375 -1.984375 1.59375 -5.609375q0 -4.265625 -1.421875 -6.09375q-1.40625 -1.828125 -3.296875 -1.828125q-1.21875 0 -2.171875 0.75q-1.015625 0.765625 -1.65625 2.375q-0.359375 0.9375 -1.59375 5.5q-1.765625 6.578125 -2.890625 9.1875q-1.109375 2.609375 -3.25 4.09375q-2.140625 1.484375 -5.3125 1.484375q-3.109375 0 -5.859375 -1.8125q-2.734375 -1.8125 -4.234375 -5.234375q-1.5 -3.40625 -1.5 -7.71875q0 -7.15625 2.96875 -10.90625q2.96875 -3.734375 8.796875 -4.765625zm32.5 37.84375l7.140625 0l0 6.21875l-7.140625 0l0 -6.21875zm-43.4375 0l36.640625 0l0 6.21875l-36.640625 0l0 -6.21875zm0 17.15068l31.8125 0l0 -5.484375l4.828125 0l0 5.484375l3.890625 0q3.703125 0 5.484375 0.65625q2.421875 0.890625 3.921875 3.15625q1.5 2.265625 1.5 6.328125q0 2.625 -0.625 5.796875l-5.40625 -0.921875q0.34375 -1.9375 0.34375 -3.671875q0 -2.828125 -1.21875 -4.0q-1.203125 -1.171875 -4.515625 -1.171875l-3.375 0l0 7.140625l-4.828125 0l0 -7.140625l-31.8125 0l0 -6.171875zm43.4375 18.17743l7.140625 0l0 6.21875l-7.140625 0l0 -6.21875zm-43.4375 0l36.640625 0l0 6.21875l-36.640625 0l0 -6.21875zm11.796875 40.744446l-0.796875 6.421875q-5.625 -1.515625 -8.734375 -5.625q-3.09375 -4.109375 -3.09375 -10.484375q0 -8.046875 4.953125 -12.75q4.953125 -4.703125 13.890625 -4.703125q9.234375 0 14.34375 4.75q5.109375 4.765625 5.109375 12.359375q0 7.34375 -5.0 12.0q-5.0 4.65625 -14.078125 4.65625q-0.546875 0 -1.65625 -0.03125l0 -27.328125q-6.046875 0.34375 -9.25 3.40625q-3.203125 3.078125 -3.203125 7.671875q0 3.421875 1.78125 5.828125q1.796875 2.421875 5.734375 3.828125zm10.046875 -20.390625l0 20.46875q4.625 -0.421875 6.921875 -2.34375q3.59375 -2.96875 3.59375 -7.703125q0 -4.28125 -2.859375 -7.203125q-2.859375 -2.90625 -7.65625 -3.21875zm-21.84375 34.545654l36.640625 0l0 5.578125l-5.5625 0q3.90625 2.140625 5.140625 3.953125q1.25 1.8125 1.25 3.984375q0 3.140625 -2.0 6.390625l-5.765625 -2.140625q1.34375 -2.28125 1.34375 -4.5625q0 -2.03125 -1.234375 -3.65625q-1.21875 -1.609375 -3.390625 -2.3125q-3.3125 -1.03125 -7.234375 -1.03125l-19.1875 0l0 -6.203125zm10.9375 21.107208l0.96875 6.140625q-3.6875 0.515625 -5.65625 2.875q-1.96875 2.375 -1.96875 6.609375q0 4.28125 1.734375 6.34375q1.75 2.078125 4.09375 2.078125q2.109375 0 3.3125 -1.828125q0.828125 -1.28125 2.109375 -6.34375q1.71875 -6.828125 2.96875 -9.46875q1.265625 -2.640625 3.484375 -4.015625q2.234375 -1.359375 4.921875 -1.359375q2.453125 0 4.53125 1.125q2.09375 1.125 3.484375 3.0625q1.0625 1.4375 1.796875 3.9375q0.75 2.5 0.75 5.375q0 4.3125 -1.25 7.5625q-1.234375 3.265625 -3.359375 4.8125q-2.125 1.5625 -5.671875 2.140625l-0.828125 -6.0625q2.828125 -0.421875 4.40625 -2.40625q1.59375 -1.984375 1.59375 -5.609375q0 -4.265625 -1.421875 -6.09375q-1.40625 -1.828125 -3.296875 -1.828125q-1.21875 0 -2.171875 0.75q-1.015625 0.765625 -1.65625 2.375q-0.359375 0.9375 -1.59375 5.5q-1.765625 6.578125 -2.890625 9.1875q-1.109375 2.609375 -3.25 4.09375q-2.140625 1.484375 -5.3125 1.484375q-3.109375 0 -5.859375 -1.8125q-2.734375 -1.8125 -4.234375 -5.234375q-1.5 -3.40625 -1.5 -7.71875q0 -7.15625 2.96875 -10.90625q2.96875 -3.734375 8.796875 -4.765625z" fill-rule="nonzero"/></g></svg>