<svg version="1.1" viewBox="0.0 0.0 480.0 480.0" fill="none" stroke="none" stroke-linecap="square" stroke-miterlimit="10" xmlns:xlink="http://www.w3.org/1999/xlink" xmlns="http://www.w3.org/2000/svg"><clipPath id="p.0"><path d="m0 0l480.0 0l0 480.0l-480.0 0l0 -480.0z" clip-rule="nonzero"/></clipPath><g clip-path="url(#p.0)"><path fill="#000000" fill-opacity="0.0" d="m0 0l480.0 0l0 480.0l-480.0 0z" fill-rule="evenodd"/><path fill="#000000" fill-opacity="0.0" d="m139.31496 -0.001312336l0 480.0l-112.0 0l0 -480.0z" fill-rule="evenodd"/><path fill="#000000" d="m76.04934 147.68005l-1.59375 6.3125q-7.78125 -1.984375 -11.875004 -7.140625q-4.078125 -5.15625 -4.078125 -12.609375q0 -7.71875 3.140625 -12.5625q3.1406288 -4.828125 9.093754 -7.359375q5.953125 -2.515625 12.796875 -2.515625q7.453125 0 13.0 2.84375q5.546875 2.859375 8.421875 8.109375q2.890625 5.265625 2.890625 11.578125q0 7.15625 -3.65625 12.03125q-3.640625 4.890625 -10.25 6.8125l-1.453125 -6.21875q5.203125 -1.65625 7.578125 -4.8125q2.375 -3.15625 2.375 -7.9375q0 -5.5 -2.640625 -9.203125q-2.625 -3.6875 -7.078125 -5.1875q-4.4375 -1.5 -9.15625 -1.5q-6.09375 0 -10.640625 1.765625q-4.53125 1.78125 -6.78125 5.515625q-2.2343788 3.75 -2.2343788 8.109375q0 5.3125 3.0468788 8.984375q3.0625 3.6875 9.09375 4.984375zm0.546875 11.168259q9.609375 0 14.21875 5.328125q3.84375 4.46875 3.84375 10.875q0 7.125 -4.671875 11.640625q-4.671875 4.53125 -12.90625 4.53125q-6.671875 0 -10.5 -2.0q-3.8125038 -2.0 -5.937504 -5.828125q-2.109375 -3.8125 -2.109375 -8.34375q0 -7.265625 4.65625 -11.734375q4.656254 -4.46875 13.406254 -4.46875zm0 6.015625q-6.640625 0 -9.953125 2.890625q-3.2968788 2.90625 -3.2968788 7.296875q0 4.359375 3.3125038 7.25q3.328125 2.90625 10.140625 2.90625q6.40625 0 9.703125 -2.921875q3.3125 -2.90625 3.3125 -7.234375q0 -4.390625 -3.296875 -7.296875q-3.28125 -2.890625 -9.921875 -2.890625zm-17.281254 33.10228l47.718754 0l0 5.859375l-47.718754 0l0 -5.859375zm0 37.590134l5.078129 0q-5.859379 -4.03125 -5.859379 -10.96875q0 -3.0625 1.171875 -5.71875q1.171875 -2.640625 2.9375 -3.9375q1.7812538 -1.28125 4.359379 -1.796875q1.71875 -0.359375 5.46875 -0.359375l21.40625 0l0 5.859375l-19.171875 0q-4.578125 0 -6.1875 0.359375q-2.296875 0.546875 -3.625 2.328125q-1.3125038 1.796875 -1.3125038 4.4375q0 2.640625 1.3437538 4.953125q1.359375 2.3125 3.6875 3.265625q2.328125 0.953125 6.75 0.953125l18.515625 0l0 5.859375l-34.562504 0l0 -5.234375zm0 14.41478l34.562504 0l0 5.25l-4.84375 0q2.53125 1.625 4.078125 4.328125q1.546875 2.703125 1.546875 6.140625q0 3.84375 -1.59375 6.296875q-1.59375 2.46875 -4.453125 3.46875q6.046875 4.109375 6.046875 10.671875q0 5.15625 -2.84375 7.921875q-2.84375 2.765625 -8.765625 2.765625l-23.734379 0l0 -5.828125l21.781254 0q3.5 0 5.046875 -0.578125q1.546875 -0.5625 2.484375 -2.0625q0.953125 -1.5 0.953125 -3.515625q0 -3.640625 -2.421875 -6.046875q-2.421875 -2.40625 -7.765625 -2.40625l-20.078129 0l0 -5.859375l22.453129 0q3.90625 0 5.859375 -1.4375q1.953125 -1.4375 1.953125 -4.6875q0 -2.46875 -1.296875 -4.578125q-1.296875 -2.09375 -3.8125 -3.046875q-2.5 -0.9375 -7.21875 -0.9375l-17.937504 0l0 -5.859375zm0 55.525177l34.562504 0l0 5.28125l-4.90625 0q5.6875 3.796875 5.6875 11.0q0 3.125 -1.125 5.734375q-1.125 2.625 -2.953125 3.921875q-1.8125 1.3125 -4.3125 1.828125q-1.625 0.328125 -5.703125 0.328125l-21.250004 0l0 -5.859375l21.031254 0q3.578125 0 5.34375 -0.6875q1.78125 -0.6875 2.828125 -2.421875q1.0625 -1.734375 1.0625 -4.078125q0 -3.75 -2.375 -6.46875q-2.375 -2.71875 -9.015625 -2.71875l-18.875004 0l0 -5.859375zm10.312504 34.727295l0.921875 5.796875q-3.484375 0.484375 -5.34375 2.71875q-1.8593788 2.234375 -1.8593788 6.234375q0 4.03125 1.6406288 5.984375q1.65625 1.953125 3.859375 1.953125q1.984375 0 3.125 -1.71875q0.78125 -1.203125 1.984375 -6.0q1.640625 -6.4375 2.828125 -8.9375q1.1875 -2.484375 3.28125 -3.765625q2.09375 -1.28125 4.640625 -1.28125q2.3125 0 4.28125 1.046875q1.96875 1.0625 3.265625 2.890625q1.015625 1.359375 1.703125 3.71875q0.703125 2.359375 0.703125 5.0625q0 4.078125 -1.171875 7.140625q-1.171875 3.078125 -3.171875 4.546875q-2.0 1.46875 -5.359375 2.015625l-0.78125 -5.71875q2.671875 -0.390625 4.171875 -2.265625q1.5 -1.875 1.5 -5.296875q0 -4.03125 -1.34375 -5.765625q-1.328125 -1.71875 -3.125 -1.71875q-1.125 0 -2.046875 0.71875q-0.9375 0.71875 -1.5625 2.25q-0.328125 0.875 -1.5 5.171875q-1.65625 6.21875 -2.71875 8.671875q-1.046875 2.453125 -3.0625 3.84375q-2.015625 1.40625 -5.015625 1.40625q-2.9375 0 -5.531254 -1.703125q-2.578125 -1.703125 -4.0 -4.9375q-1.40625 -3.21875 -1.40625 -7.28125q0 -6.734375 2.796875 -10.265625q2.7968788 -3.53125 8.296879 -4.515625z" fill-rule="nonzero"/><path fill="#000000" fill-opacity="0.0" d="m451.51703 166.30315l0 0c0.6436157 0 1.1653748 0.52175903 1.1653748 1.1653748l0 4.661377l0 0c0 0.30908203 -0.12277222 0.60549927 -0.3413086 0.8240509c-0.2185669 0.21855164 -0.51498413 0.34132385 -0.82406616 0.34132385l-294.67712 0c-0.6436157 0 -1.1653748 -0.52175903 -1.1653748 -1.1653748l0 -4.661377c0 -0.6436157 0.52175903 -1.1653748 1.1653748 -1.1653748z" fill-rule="evenodd"/><path stroke="#000000" stroke-width="16.0" stroke-linejoin="round" stroke-linecap="butt" d="m451.51703 166.30315l0 0c0.6436157 0 1.1653748 0.52175903 1.1653748 1.1653748l0 4.661377l0 0c0 0.30908203 -0.12277222 0.60549927 -0.3413086 0.8240509c-0.2185669 0.21855164 -0.51498413 0.34132385 -0.82406616 0.34132385l-294.67712 0c-0.6436157 0 -1.1653748 -0.52175903 -1.1653748 -1.1653748l0 -4.661377c0 -0.6436157 0.52175903 -1.1653748 1.1653748 -1.1653748z" fill-rule="evenodd"/><path fill="#000000" d="m273.67935 272.54733l0 21.239197l22.338654 0l0 19.993866l-22.338654 0l0 21.239227l-19.993866 0l0 -21.239227l-22.338669 0l0 -19.993866l22.338669 0l0 -21.239197z" fill-rule="evenodd"/><path stroke="#000000" stroke-width="1.0" stroke-linejoin="round" stroke-linecap="butt" d="m273.67935 272.54733l0 21.239197l22.338654 0l0 19.993866l-22.338654 0l0 21.239227l-19.993866 0l0 -21.239227l-22.338669 0l0 -19.993866l22.338669 0l0 -21.239197z" fill-rule="evenodd"/><path fill="#000000" fill-opacity="0.0" d="m452.6824 303.9619l0 0c0 0.73638916 -0.59695435 1.333374 -1.3333435 1.333374l-5.3332825 0l0 0c-0.3536377 0 -0.69277954 -0.14050293 -0.9428406 -0.39053345c-0.25003052 -0.25006104 -0.39053345 -0.5892029 -0.39053345 -0.9428406l0 -136.32541c0 -0.73638916 0.59698486 -1.3333588 1.333374 -1.3333588l5.3332825 0c0.73638916 0 1.3333435 0.5969696 1.3333435 1.3333588z" fill-rule="evenodd"/><path stroke="#000000" stroke-width="16.0" stroke-linejoin="round" stroke-linecap="butt" d="m452.6824 303.9619l0 0c0 0.73638916 -0.59695435 1.333374 -1.3333435 1.333374l-5.3332825 0l0 0c-0.3536377 0 -0.69277954 -0.14050293 -0.9428406 -0.39053345c-0.25003052 -0.25006104 -0.39053345 -0.5892029 -0.39053345 -0.9428406l0 -136.32541c0 -0.73638916 0.59698486 -1.3333588 1.333374 -1.3333588l5.3332825 0c0.73638916 0 1.3333435 0.5969696 1.3333435 1.3333588z" fill-rule="evenodd"/><path fill="#000000" fill-opacity="0.0" d="m163.67455 303.9619l0 0c0 0.73638916 -0.5969696 1.333374 -1.3333588 1.333374l-5.3332825 0l0 0c-0.3536377 0 -0.69277954 -0.14050293 -0.9428253 -0.39053345c-0.25006104 -0.25006104 -0.39053345 -0.5892029 -0.39053345 -0.9428406l0 -136.32541c0 -0.73638916 0.59695435 -1.3333588 1.3333588 -1.3333588l5.3332825 0c0.73638916 0 1.3333588 0.5969696 1.3333588 1.3333588z" fill-rule="evenodd"/><path stroke="#000000" stroke-width="16.0" stroke-linejoin="round" stroke-linecap="butt" d="m163.67455 303.9619l0 0c0 0.73638916 -0.5969696 1.333374 -1.3333588 1.333374l-5.3332825 0l0 0c-0.3536377 0 -0.69277954 -0.14050293 -0.9428253 -0.39053345c-0.25006104 -0.25006104 -0.39053345 -0.5892029 -0.39053345 -0.9428406l0 -136.32541c0 -0.73638916 0.59695435 -1.3333588 1.3333588 -1.3333588l5.3332825 0c0.73638916 0 1.3333588 0.5969696 1.3333588 1.3333588z" fill-rule="evenodd"/><path fill="#000000" fill-opacity="0.0" d="m451.51703 300.2874l0 0c0.6436157 0 1.1653748 0.52175903 1.1653748 1.1653748l0 4.6613464l0 0c0 0.30908203 -0.12277222 0.60549927 -0.3413086 0.82406616c-0.2185669 0.21853638 -0.51498413 0.3413391 -0.82406616 0.3413391l-129.66925 0c-0.6436157 0 -1.1653748 -0.52175903 -1.1653748 -1.1654053l0 -4.6613464c0 -0.6436157 0.52175903 -1.1653748 1.1653748 -1.1653748z" fill-rule="evenodd"/><path stroke="#000000" stroke-width="16.0" stroke-linejoin="round" stroke-linecap="butt" d="m451.51703 300.2874l0 0c0.6436157 0 1.1653748 0.52175903 1.1653748 1.1653748l0 4.6613464l0 0c0 0.30908203 -0.12277222 0.60549927 -0.3413086 0.82406616c-0.2185669 0.21853638 -0.51498413 0.3413391 -0.82406616 0.3413391l-129.66925 0c-0.6436157 0 -1.1653748 -0.52175903 -1.1653748 -1.1654053l0 -4.6613464c0 -0.6436157 0.52175903 -1.1653748 1.1653748 -1.1653748z" fill-rule="evenodd"/><path fill="#000000" fill-opacity="0.0" d="m205.51704 300.2874l0 0c0.6436157 0 1.1653748 0.52175903 1.1653748 1.1653748l0 4.6613464l0 0c0 0.30908203 -0.122787476 0.60549927 -0.3413391 0.82406616c-0.21855164 0.21853638 -0.5149689 0.3413391 -0.82403564 0.3413391l-48.661377 0c-0.6436157 0 -1.1653748 -0.52175903 -1.1653748 -1.1654053l0 -4.6613464c0 -0.6436157 0.52175903 -1.1653748 1.1653748 -1.1653748z" fill-rule="evenodd"/><path stroke="#000000" stroke-width="16.0" stroke-linejoin="round" stroke-linecap="butt" d="m205.51704 300.2874l0 0c0.6436157 0 1.1653748 0.52175903 1.1653748 1.1653748l0 4.6613464l0 0c0 0.30908203 -0.122787476 0.60549927 -0.3413391 0.82406616c-0.21855164 0.21853638 -0.5149689 0.3413391 -0.82403564 0.3413391l-48.661377 0c-0.6436157 0 -1.1653748 -0.52175903 -1.1653748 -1.1654053l0 -4.6613464c0 -0.6436157 0.52175903 -1.1653748 1.1653748 -1.1653748z" fill-rule="evenodd"/></g></svg>