<svg version="1.1" viewBox="0.0 0.0 428.16010498687666 428.4488188976378" fill="none" stroke="none" stroke-linecap="square" stroke-miterlimit="10" xmlns:xlink="http://www.w3.org/1999/xlink" xmlns="http://www.w3.org/2000/svg"><clipPath id="p.0"><path d="m0 0l428.1601 0l0 428.44882l-428.1601 0l0 -428.44882z" clip-rule="nonzero"/></clipPath><g clip-path="url(#p.0)"><path fill="#000000" fill-opacity="0.0" d="m0 0l428.1601 0l0 428.44882l-428.1601 0z" fill-rule="evenodd"/><path fill="#000000" fill-opacity="0.0" d="m145.17586 3.2480283l0 421.95276l-104.44095 0l0 -421.95276z" fill-rule="evenodd"/><path fill="#000000" d="m84.233505 103.42363l-1.90625 7.578125q-9.34375 -2.375 -14.25 -8.578125q-4.906246 -6.1875 -4.906246 -15.125q0 -9.265625 3.7656212 -15.0625q3.78125 -5.796875 10.921875 -8.828129q7.15625 -3.03125 15.359375 -3.03125q8.953125 0 15.609375 3.421875q6.65625 3.4218788 10.109375 9.718754q3.46875 6.3125 3.46875 13.890625q0 8.59375 -4.375 14.453125q-4.375 5.859375 -12.3125 8.171875l-1.75 -7.46875q6.25 -1.984375 9.09375 -5.78125q2.859375 -3.78125 2.859375 -9.53125q0 -6.59375 -3.171875 -11.03125q-3.15625 -4.4375 -8.5 -6.234375q-5.328125 -1.796875 -10.984375 -1.796875q-7.3125 0 -12.765625 2.125q-5.4375 2.140625 -8.140625 6.625q-2.6875 4.5 -2.6875 9.734375q0 6.359375 3.671875 10.765625q3.671875 4.421875 10.890625 5.984375zm0.671875 13.3984375q11.515625 0 17.0625 6.40625q4.609375 5.359375 4.609375 13.046875q0 8.5625 -5.609375 13.984375q-5.59375 5.4375 -15.484375 5.4375q-8.0 0 -12.59375 -2.40625q-4.59375 -2.40625 -7.140625 -7.0q-2.5312462 -4.578125 -2.5312462 -10.015625q0 -8.703125 5.578121 -14.078125q5.59375 -5.375 16.109375 -5.375zm0 7.234375q-7.96875 0 -11.9375 3.46875q-3.96875 3.484375 -3.96875 8.75q0 5.234375 3.984375 8.703125q3.984375 3.484375 12.15625 3.484375q7.6875 0 11.65625 -3.5q3.96875 -3.484375 3.96875 -8.6875q0 -5.265625 -3.953125 -8.75q-3.9375 -3.46875 -11.90625 -3.46875zm-20.75 39.726562l57.265625 0l0 7.03125l-57.265625 0l0 -7.03125zm0 45.117188l6.09375 0q-7.031246 -4.84375 -7.031246 -13.171875q0 -3.671875 1.4062462 -6.859375q1.40625 -3.171875 3.53125 -4.71875q2.140625 -1.546875 5.21875 -2.171875q2.078125 -0.421875 6.5625 -0.421875l25.703125 0l0 7.03125l-23.0 0q-5.515625 0 -7.421875 0.421875q-2.78125 0.671875 -4.359375 2.8125q-1.578125 2.15625 -1.578125 5.3125q0 3.171875 1.609375 5.9375q1.625 2.78125 4.421875 3.921875q2.796875 1.15625 8.109375 1.15625l22.21875 0l0 7.03125l-41.484375 0l0 -6.28125zm0 17.304688l41.484375 0l0 6.28125l-5.8125 0q3.046875 1.953125 4.890625 5.1875q1.859375 3.25 1.859375 7.390625q0 4.609375 -1.921875 7.5625q-1.90625 2.953125 -5.34375 4.1562347q7.265625 4.921875 7.265625 12.8125q0 6.171875 -3.421875 9.484375q-3.40625 3.328125 -10.515625 3.328125l-28.484375 0l0 -6.984375l26.140625 0q4.21875 0 6.0625 -0.6875q1.859375 -0.6875 2.984375 -2.484375q1.140625 -1.796875 1.140625 -4.21875q0 -4.375 -2.90625 -7.265625q-2.90625 -2.890625 -9.3125 -2.890625l-24.109375 0l0 -7.0312347l26.953125 0q4.6875 0 7.03125 -1.71875q2.34375 -1.71875 2.34375 -5.625q0 -2.96875 -1.5625 -5.484375q-1.5625 -2.515625 -4.578125 -3.65625q-3.0 -1.125 -8.65625 -1.125l-21.53125 0l0 -7.03125zm0 66.64061l41.484375 0l0 6.328125l-5.890625 0q6.828125 4.5625 6.828125 13.203125q0 3.75 -1.34375 6.890625q-1.34375 3.140625 -3.53125 4.703125q-2.1875 1.5625 -5.203125 2.1875q-1.953125 0.390625 -6.828125 0.390625l-25.515625 0l0 -7.03125l25.234375 0q4.296875 0 6.421875 -0.828125q2.140625 -0.8125 3.40625 -2.90625q1.265625 -2.078125 1.265625 -4.890625q0 -4.5 -2.859375 -7.765625q-2.84375 -3.25 -10.8125 -3.25l-22.65625 0l0 -7.03125zm12.390625 41.679688l1.09375 6.953125q-4.1875 0.578125 -6.421875 3.25q-2.21875 2.6875 -2.21875 7.484375q0 4.84375 1.96875 7.1875q1.984375 2.34375 4.640625 2.34375q2.375 0 3.75 -2.0625q0.9375 -1.453125 2.375 -7.1875q1.953125 -7.734375 3.375 -10.734375q1.4375 -2.984375 3.953125 -4.53125q2.515625 -1.53125 5.5625 -1.53125q2.78125 0 5.140625 1.265625q2.359375 1.265625 3.921875 3.453125q1.21875 1.640625 2.046875 4.46875q0.84375 2.84375 0.84375 6.078125q0 4.890625 -1.40625 8.578125q-1.40625 3.6875 -3.8125 5.4375q-2.390625 1.765625 -6.421875 2.4375l-0.9375 -6.875q3.203125 -0.46875 5.0 -2.71875q1.796875 -2.25 1.796875 -6.34375q0 -4.84375 -1.609375 -6.921875q-1.59375 -2.0625 -3.734375 -2.0625q-1.375 0 -2.46875 0.859375q-1.125 0.859375 -1.875 2.6875q-0.390625 1.0625 -1.796875 6.21875q-1.984375 7.453125 -3.265625 10.40625q-1.265625 2.953125 -3.6875 4.625q-2.421875 1.6875 -6.015625 1.6875q-3.515625 0 -6.625 -2.0625q-3.09375 -2.046875 -4.796875 -5.921875q-1.7031212 -3.859375 -1.7031212 -8.734375q0 -8.09375 3.3593712 -12.328125q3.359375 -4.234375 9.96875 -5.40625z" fill-rule="nonzero"/><path fill="#0c1990" d="m400.15747 214.22441l0 0c0 56.69832 -46.160492 102.66142 -103.102356 102.66142l0 0c-27.344452 0 -53.56894 -10.816101 -72.90437 -30.068848c-19.33545 -19.252747 -30.197983 -45.36508 -30.197983 -72.592575l0 0c0 -56.698334 46.160492 -102.661415 103.102356 -102.661415l0 0c56.941864 0 103.102356 45.96308 103.102356 102.661415z" fill-rule="evenodd"/></g></svg>