<svg version="1.1" viewBox="0.0 0.0 301.81102362204723 249.00787401574803" fill="none" stroke="none" stroke-linecap="square" stroke-miterlimit="10" xmlns:xlink="http://www.w3.org/1999/xlink" xmlns="http://www.w3.org/2000/svg"><clipPath id="p.0"><path d="m0 0l301.81104 0l0 249.00787l-301.81104 0l0 -249.00787z" clip-rule="nonzero"/></clipPath><g clip-path="url(#p.0)"><path fill="#000000" fill-opacity="0.0" d="m0 0l301.81104 0l0 249.00787l-301.81104 0z" fill-rule="evenodd"/><path fill="#00b7b5" d="m25.821798 41.355156l0 0c0 -22.83982 18.515333 -41.355156 41.355156 -41.355156l192.50227 0c10.968079 0 21.486938 4.3570485 29.242523 12.112646c7.7555847 7.755595 12.11264 18.27444 12.11264 29.242512l0 165.41568c0 22.839813 -18.51532 41.35515 -41.355164 41.35515l-192.50227 0c-22.839825 0 -41.355156 -18.515335 -41.355156 -41.35515z" fill-rule="evenodd"/><path fill="#018790" d="m5.882207 41.355156l0 0c0 -22.83982 18.515335 -41.355156 41.35516 -41.355156l192.50229 0c10.968063 0 21.486908 4.3570485 29.242493 12.112646c7.755615 7.755595 12.112671 18.27444 12.112671 29.242512l0 165.41568c0 22.839813 -18.51535 41.35515 -41.355164 41.35515l-192.50229 0c-22.839825 0 -41.35516 -18.515335 -41.35516 -41.35515z" fill-rule="evenodd"/><path fill="#005461" d="m0 41.355156l0 0c0 -22.83982 18.515335 -41.355156 41.355156 -41.355156l176.50229 0l0 0c10.968079 0 21.486923 4.3570485 29.242523 12.112646c7.7555847 7.755595 12.112625 18.27444 12.112625 29.242512l0 165.41568c0 22.839813 -18.51532 41.35515 -41.35515 41.35515l-176.50229 0c-22.83982 0 -41.355156 -18.515335 -41.355156 -41.35515z" fill-rule="evenodd"/><path fill="#ffffff" d="m36.333405 182.41246l48.7874 -74.99212l11.874016 7.5905533l-48.7874 74.99213z" fill-rule="evenodd"/><path stroke="#ffffff" stroke-width="2.0498687664041992" stroke-linejoin="round" stroke-linecap="butt" d="m36.333405 182.41246l48.7874 -74.99212l11.874016 7.5905533l-48.7874 74.99213z" fill-rule="evenodd"/><path fill="#ffffff" d="m156.7655 147.3821l55.2126 -87.527565l11.023621 7.149605l-55.2126 87.52756z" fill-rule="evenodd"/><path stroke="#ffffff" stroke-width="2.0498687664041992" stroke-linejoin="round" stroke-linecap="butt" d="m156.7655 147.3821l55.2126 -87.527565l11.023621 7.149605l-55.2126 87.52756z" fill-rule="evenodd"/><path fill="#ffffff" d="m95.68118 106.8947l54.771652 35.93701l-7.5275574 11.244095l-54.771652 -35.93701z" fill-rule="evenodd"/><path stroke="#ffffff" stroke-width="2.0498687664041992" stroke-linejoin="round" stroke-linecap="butt" d="m95.68118 106.8947l54.771652 35.93701l-7.5275574 11.244095l-54.771652 -35.93701z" fill-rule="evenodd"/><path fill="#ffffff" d="m200.74942 56.604755l0 0c1.4611664 -9.26273 10.626999 -15.50959 20.472443 -13.952755l0 0c4.727951 0.7476158 8.9835205 3.2316246 11.830536 6.9055634c2.8470154 3.6739426 4.052246 8.236866 3.3505707 12.684986l0 0c-1.4611664 9.26273 -10.626984 15.509594 -20.472443 13.952755l0 0c-9.845459 -1.5568314 -16.642258 -10.32782 -15.181107 -19.59055z" fill-rule="evenodd"/><path stroke="#ffffff" stroke-width="2.0498687664041992" stroke-linejoin="round" stroke-linecap="butt" d="m200.74942 56.604755l0 0c1.4611664 -9.26273 10.626999 -15.50959 20.472443 -13.952755l0 0c4.727951 0.7476158 8.9835205 3.2316246 11.830536 6.9055634c2.8470154 3.6739426 4.052246 8.236866 3.3505707 12.684986l0 0c-1.4611664 9.26273 -10.626984 15.509594 -20.472443 13.952755l0 0c-9.845459 -1.5568314 -16.642258 -10.32782 -15.181107 -19.59055z" fill-rule="evenodd"/><path fill="#ffffff" d="m135.93028 151.26643l0 0c1.4611664 -9.262726 10.626984 -15.509598 20.472443 -13.952759l0 0c4.727951 0.7476196 8.9835205 3.2316284 11.830521 6.9055634c2.8470154 3.6739502 4.052246 8.236862 3.3505707 12.684982l0 0c-1.4611511 9.262741 -10.626984 15.509598 -20.472427 13.952759l0 0c-9.845459 -1.556839 -16.642273 -10.32782 -15.181107 -19.590546z" fill-rule="evenodd"/><path stroke="#ffffff" stroke-width="2.0498687664041992" stroke-linejoin="round" stroke-linecap="butt" d="m135.93028 151.26643l0 0c1.4611664 -9.262726 10.626984 -15.509598 20.472443 -13.952759l0 0c4.727951 0.7476196 8.9835205 3.2316284 11.830521 6.9055634c2.8470154 3.6739502 4.052246 8.236862 3.3505707 12.684982l0 0c-1.4611511 9.262741 -10.626984 15.509598 -20.472427 13.952759l0 0c-9.845459 -1.556839 -16.642273 -10.32782 -15.181107 -19.590546z" fill-rule="evenodd"/><path fill="#ffffff" d="m71.83889 106.73541l0 0c1.4611664 -9.262733 10.626984 -15.50959 20.472443 -13.952759l0 0c4.727951 0.7476196 8.9835205 3.2316284 11.830528 6.9055634c2.8470154 3.6739426 4.052246 8.23687 3.3505707 12.68499l0 0c-1.4611588 9.262726 -10.626984 15.50959 -20.472435 13.952759l0 0c-9.845459 -1.556839 -16.642265 -10.327827 -15.181107 -19.590553z" fill-rule="evenodd"/><path stroke="#ffffff" stroke-width="2.0498687664041992" stroke-linejoin="round" stroke-linecap="butt" d="m71.83889 106.73541l0 0c1.4611664 -9.262733 10.626984 -15.50959 20.472443 -13.952759l0 0c4.727951 0.7476196 8.9835205 3.2316284 11.830528 6.9055634c2.8470154 3.6739426 4.052246 8.23687 3.3505707 12.68499l0 0c-1.4611588 9.262726 -10.626984 15.50959 -20.472435 13.952759l0 0c-9.845459 -1.556839 -16.642265 -10.327827 -15.181107 -19.590553z" fill-rule="evenodd"/><path fill="#ffffff" d="m22.810045 185.74083l0 0c1.4611626 -9.262726 10.626986 -15.5095825 20.47244 -13.952759l0 0c4.727955 0.7476196 8.983524 3.2316284 11.830532 6.9055634c2.8470116 3.6739502 4.052246 8.236877 3.3505707 12.684998l0 0c-1.4611626 9.262726 -10.626987 15.5095825 -20.472439 13.952744l0 0c-9.845455 -1.5568237 -16.642267 -10.32782 -15.181105 -19.590546z" fill-rule="evenodd"/><path stroke="#ffffff" stroke-width="2.0498687664041992" stroke-linejoin="round" stroke-linecap="butt" d="m22.810045 185.74083l0 0c1.4611626 -9.262726 10.626986 -15.5095825 20.47244 -13.952759l0 0c4.727955 0.7476196 8.983524 3.2316284 11.830532 6.9055634c2.8470116 3.6739502 4.052246 8.236877 3.3505707 12.684998l0 0c-1.4611626 9.262726 -10.626987 15.5095825 -20.472439 13.952744l0 0c-9.845455 -1.5568237 -16.642267 -10.32782 -15.181105 -19.590546z" fill-rule="evenodd"/></g></svg>