<svg version="1.1" viewBox="0.0 0.0 291.20472440944883 280.1994750656168" fill="none" stroke="none" stroke-linecap="square" stroke-miterlimit="10" xmlns:xlink="http://www.w3.org/1999/xlink" xmlns="http://www.w3.org/2000/svg"><clipPath id="p.0"><path d="m0 0l291.2047 0l0 280.19946l-291.2047 0l0 -280.19946z" clip-rule="nonzero"/></clipPath><g clip-path="url(#p.0)"><path fill="#000000" fill-opacity="0.0" d="m0 0l291.2047 0l0 280.19946l-291.2047 0z" fill-rule="evenodd"/><path fill="#00b7b5" d="m42.855682 41.09794l0 0c0 -22.776041 18.46363 -41.23967 41.23967 -41.23967l164.95374 0l0 0c10.937424 0 21.426895 4.344881 29.160843 12.078819c7.7339478 7.733939 12.078827 18.223412 12.078827 29.16085l0 200.57578c0 22.776047 -18.463623 41.23967 -41.23967 41.23967l-164.95374 0c-22.77604 0 -41.23967 -18.463623 -41.23967 -41.23967z" fill-rule="evenodd"/><path fill="#018790" d="m4.7139106 43.129475l0 0c0 -23.898027 19.373178 -43.271206 43.27121 -43.271206l173.07964 0l0 0c11.476227 0 22.482437 4.5589175 30.597351 12.673843c8.114929 8.114924 12.673859 19.121124 12.673859 30.597363l0 196.51271c0 23.89801 -19.373184 43.27121 -43.27121 43.27121l-173.07964 0l0 0c-23.89803 0 -43.27121 -19.3732 -43.27121 -43.27121z" fill-rule="evenodd"/><path fill="#005461" d="m0 38.48371l0 0c0 -21.332243 17.293201 -38.625443 38.625443 -38.625443l154.49715 0l0 0c10.24411 0 20.068634 4.0694547 27.312317 11.31313c7.2436676 7.243677 11.313126 17.068209 11.313126 27.312313l0 205.80423c0 21.33223 -17.293198 38.625443 -38.625443 38.625443l-154.49715 0c-21.332241 0 -38.625443 -17.293213 -38.625443 -38.625443z" fill-rule="evenodd"/><path fill="#ffffff" d="m24.949856 205.16101l36.503937 -81.70079l12.944881 5.6692963l-36.503937 81.70079z" fill-rule="evenodd"/><path stroke="#ffffff" stroke-width="2.0498687664041992" stroke-linejoin="round" stroke-linecap="butt" d="m24.949856 205.16101l36.503937 -81.70079l12.944881 5.6692963l-36.503937 81.70079z" fill-rule="evenodd"/><path fill="#ffffff" d="m155.46739 157.8185l29.88977 -99.086624l12.503937 3.937008l-29.88977 99.08661z" fill-rule="evenodd"/><path stroke="#ffffff" stroke-width="2.0498687664041992" stroke-linejoin="round" stroke-linecap="butt" d="m155.46739 157.8185l29.88977 -99.086624l12.503937 3.937008l-29.88977 99.08661z" fill-rule="evenodd"/><path fill="#ffffff" d="m71.78458 121.30694l79.055115 35.685036l-5.669281 12.283463l-79.05512 -35.685028z" fill-rule="evenodd"/><path stroke="#ffffff" stroke-width="2.0498687664041992" stroke-linejoin="round" stroke-linecap="butt" d="m71.78458 121.30694l79.055115 35.685036l-5.669281 12.283463l-79.05512 -35.685028z" fill-rule="evenodd"/><path fill="#ffffff" d="m176.19058 52.3451l0 0c0 -9.384491 8.080017 -16.992126 18.047241 -16.992126l0 0c4.7864227 0 9.376816 1.7902374 12.761322 4.976879c3.3845215 3.1866417 5.285919 7.5086555 5.285919 12.015247l0 0c0 9.384491 -8.080032 16.992126 -18.047241 16.992126l0 0c-9.967224 0 -18.047241 -7.6076355 -18.047241 -16.992126z" fill-rule="evenodd"/><path stroke="#ffffff" stroke-width="2.0498687664041992" stroke-linejoin="round" stroke-linecap="butt" d="m176.19058 52.3451l0 0c0 -9.384491 8.080017 -16.992126 18.047241 -16.992126l0 0c4.7864227 0 9.376816 1.7902374 12.761322 4.976879c3.3845215 3.1866417 5.285919 7.5086555 5.285919 12.015247l0 0c0 9.384491 -8.080032 16.992126 -18.047241 16.992126l0 0c-9.967224 0 -18.047241 -7.6076355 -18.047241 -16.992126z" fill-rule="evenodd"/><path fill="#ffffff" d="m140.0975 162.99095l0 0c0 -9.384491 8.080032 -16.992126 18.047241 -16.992126l0 0c4.786438 0 9.376816 1.7902374 12.761337 4.976883c3.3845062 3.1866455 5.285904 7.5086517 5.285904 12.015244l0 0c0 9.384491 -8.080017 16.992126 -18.047241 16.992126l0 0c-9.967209 0 -18.047241 -7.6076355 -18.047241 -16.992126z" fill-rule="evenodd"/><path stroke="#ffffff" stroke-width="2.0498687664041992" stroke-linejoin="round" stroke-linecap="butt" d="m140.0975 162.99095l0 0c0 -9.384491 8.080032 -16.992126 18.047241 -16.992126l0 0c4.786438 0 9.376816 1.7902374 12.761337 4.976883c3.3845062 3.1866455 5.285904 7.5086517 5.285904 12.015244l0 0c0 9.384491 -8.080017 16.992126 -18.047241 16.992126l0 0c-9.967209 0 -18.047241 -7.6076355 -18.047241 -16.992126z" fill-rule="evenodd"/><path fill="#ffffff" d="m48.207077 124.88353l0 0c0 -9.384491 8.080029 -16.992126 18.047241 -16.992126l0 0c4.7864304 0 9.376816 1.7902374 12.76133 4.9768753c3.3845139 3.1866455 5.285919 7.5086594 5.285919 12.015251l0 0c0 9.384491 -8.080025 16.992126 -18.047249 16.992126l0 0c-9.967213 0 -18.047241 -7.6076355 -18.047241 -16.992126z" fill-rule="evenodd"/><path stroke="#ffffff" stroke-width="2.0498687664041992" stroke-linejoin="round" stroke-linecap="butt" d="m48.207077 124.88353l0 0c0 -9.384491 8.080029 -16.992126 18.047241 -16.992126l0 0c4.7864304 0 9.376816 1.7902374 12.76133 4.9768753c3.3845139 3.1866455 5.285919 7.5086594 5.285919 12.015251l0 0c0 9.384491 -8.080025 16.992126 -18.047249 16.992126l0 0c-9.967213 0 -18.047241 -7.6076355 -18.047241 -16.992126z" fill-rule="evenodd"/><path fill="#ffffff" d="m12.107612 210.57199l0 0c0 -9.384491 8.080028 -16.992126 18.047245 -16.992126l0 0c4.7864285 0 9.376814 1.7902374 12.761328 4.976883c3.3845177 3.1866455 5.2859154 7.5086517 5.2859154 12.015244l0 0c0 9.384491 -8.080025 16.992126 -18.047243 16.992126l0 0c-9.9672165 0 -18.047245 -7.6076355 -18.047245 -16.992126z" fill-rule="evenodd"/><path stroke="#ffffff" stroke-width="2.0498687664041992" stroke-linejoin="round" stroke-linecap="butt" d="m12.107612 210.57199l0 0c0 -9.384491 8.080028 -16.992126 18.047245 -16.992126l0 0c4.7864285 0 9.376814 1.7902374 12.761328 4.976883c3.3845177 3.1866455 5.2859154 7.5086517 5.2859154 12.015244l0 0c0 9.384491 -8.080025 16.992126 -18.047243 16.992126l0 0c-9.9672165 0 -18.047245 -7.6076355 -18.047245 -16.992126z" fill-rule="evenodd"/></g></svg>