<svg version="1.1" viewBox="0.0 0.0 480.0 480.0" fill="none" stroke="none" stroke-linecap="square" stroke-miterlimit="10" xmlns:xlink="http://www.w3.org/1999/xlink" xmlns="http://www.w3.org/2000/svg"><clipPath id="p.0"><path d="m0 0l480.0 0l0 480.0l-480.0 0l0 -480.0z" clip-rule="nonzero"/></clipPath><g clip-path="url(#p.0)"><path fill="#000000" fill-opacity="0.0" d="m0 0l480.0 0l0 480.0l-480.0 0z" fill-rule="evenodd"/><path fill="#000000" fill-opacity="0.0" d="m188.86876 -0.001312336l0 480.0l-111.99999 0l0 -480.0z" fill-rule="evenodd"/><path fill="#000000" d="m108.86877 19.181778l47.718742 0l0 18.0q0 4.75 -0.453125 7.265625q-0.59375 3.5 -2.234375 5.875q-1.640625 2.390625 -4.609375 3.828125q-2.953125 1.453125 -6.515625 1.453125q-6.078125 0 -10.296875 -3.875q-4.21875 -3.875 -4.21875 -14.0l0 -12.234375l-19.390617 0l0 -6.3125zm25.031242 6.3125l0 12.34375q0 6.109375 2.265625 8.671875q2.28125 2.578125 6.421875 2.578125q3.0 0 5.125 -1.515625q2.140625 -1.5 2.8125 -3.984375q0.421875 -1.59375 0.421875 -5.890625l0 -12.203125l-17.046875 0zm-25.031242 37.334198l34.562492 0l0 5.265625l-5.234375 0q3.671875 2.03125 4.84375 3.734375q1.171875 1.703125 1.171875 3.765625q0 2.953125 -1.890625 6.015625l-5.4375 -2.015625q1.28125 -2.15625 1.28125 -4.296875q0 -1.921875 -1.15625 -3.453125q-1.15625 -1.53125 -3.203125 -2.1875q-3.125 -0.96875 -6.8437424 -0.96875l-18.09375 0l0 -5.859375zm11.125 45.931427l-0.75 6.046875q-5.296875 -1.4375 -8.234375 -5.3125q-2.921875 -3.859375 -2.921875 -9.890625q0 -7.578125 4.671875 -12.03125q4.671875 -4.4375 13.09375 -4.4375q8.734367 0 13.546867 4.484375q4.8125 4.5 4.8125 11.65625q0 6.9375 -4.71875 11.328125q-4.71875 4.390625 -13.281242 4.390625q-0.515625 0 -1.5625 -0.03125l0 -25.765625q-5.6875 0.3125 -8.71875 3.203125q-3.03125 2.90625 -3.03125 7.234375q0 3.234375 1.6875 5.5q1.703125 2.28125 5.40625 3.625zm9.484367 -19.25l0 19.3125q4.359375 -0.390625 6.53125 -2.21875q3.390625 -2.796875 3.390625 -7.25q0 -4.046875 -2.703125 -6.796875q-2.703125 -2.75 -7.21875 -3.046875zm-6.2812424 30.367905l5.8906174 0l0 18.0l-5.8906174 0l0 -18.0zm-27.578125 24.478302l47.812492 0l0 5.34375l-4.484375 0q2.625 1.890625 3.9375 4.265625q1.328125 2.375 1.328125 5.75q0 4.4375 -2.28125 7.8125q-2.265625 3.390625 -6.421875 5.109375q-4.15625 1.734375 -9.093742 1.734375q-5.3125 0 -9.5625 -1.90625q-4.234375 -1.90625 -6.5 -5.53125q-2.265625 -3.625 -2.265625 -7.640625q0 -2.921875 1.234375 -5.25q1.234375 -2.328125 3.125 -3.828125l-16.828125 0l0 -5.859375zm30.34375 5.3125q-6.671875 0 -9.875 2.703125q-3.1875 2.703125 -3.1875 6.53125q0 3.90625 3.296875 6.6875q3.3125 2.78125 10.25 2.78125q6.6093674 0 9.890617 -2.71875q3.28125 -2.703125 3.28125 -6.484375q0 -3.75 -3.5 -6.625q-3.484375 -2.875 -10.156242 -2.875zm-17.09375 31.69603l34.562492 0l0 5.265625l-5.234375 0q3.671875 2.03125 4.84375 3.734375q1.171875 1.703125 1.171875 3.765625q0 2.953125 -1.890625 6.015625l-5.4375 -2.015625q1.28125 -2.15625 1.28125 -4.296875q0 -1.921875 -1.15625 -3.453125q-1.15625 -1.53125 -3.203125 -2.1875q-3.125 -0.96875 -6.8437424 -0.96875l-18.09375 0l0 -5.859375zm17.28125 20.087677q9.609367 0 14.218742 5.328125q3.84375 4.46875 3.84375 10.875q0 7.125 -4.671875 11.640625q-4.671875 4.53125 -12.906242 4.53125q-6.671875 0 -10.5 -2.0q-3.8125 -2.0 -5.9375 -5.828125q-2.109375 -3.8125 -2.109375 -8.34375q0 -7.265625 4.65625 -11.734375q4.65625 -4.46875 13.40625 -4.46875zm0 6.015625q-6.640625 0 -9.953125 2.890625q-3.296875 2.90625 -3.296875 7.296875q0 4.359375 3.3125 7.25q3.328125 2.90625 10.140625 2.90625q6.4062424 0 9.703117 -2.921875q3.3125 -2.90625 3.3125 -7.234375q0 -4.390625 -3.296875 -7.296875q-3.28125 -2.890625 -9.921867 -2.890625zm-4.625 55.78978l-0.75 5.75q-5.953125 -0.9375 -9.328125 -4.828125q-3.359375 -3.890625 -3.359375 -9.546875q0 -7.09375 4.640625 -11.40625q4.640625 -4.3125 13.296875 -4.3125q5.5937424 0 9.781242 1.84375q4.203125 1.859375 6.296875 5.640625q2.109375 3.796875 2.109375 8.265625q0 5.625 -2.84375 9.203125q-2.84375 3.578125 -8.09375 4.59375l-0.875 -5.703125q3.484375 -0.8125 5.234375 -2.875q1.765625 -2.0625 1.765625 -5.0q0 -4.421875 -3.171875 -7.1875q-3.171875 -2.765625 -10.046867 -2.765625q-6.96875 0 -10.125 2.671875q-3.15625 2.671875 -3.15625 6.96875q0 3.4375 2.109375 5.75q2.125 2.3125 6.515625 2.9375zm-1.53125 34.4375l-0.75 6.046875q-5.296875 -1.4375 -8.234375 -5.3125q-2.921875 -3.859375 -2.921875 -9.890625q0 -7.578125 4.671875 -12.03125q4.671875 -4.4375 13.09375 -4.4375q8.734367 0 13.546867 4.484375q4.8125 4.5 4.8125 11.65625q0 6.9375 -4.71875 11.328125q-4.71875 4.390625 -13.281242 4.390625q-0.515625 0 -1.5625 -0.03125l0 -25.765625q-5.6875 0.3125 -8.71875 3.203125q-3.03125 2.90625 -3.03125 7.234375q0 3.234375 1.6875 5.5q1.703125 2.28125 5.40625 3.625zm9.484367 -19.25l0 19.3125q4.359375 -0.390625 6.53125 -2.21875q3.390625 -2.796875 3.390625 -7.25q0 -4.046875 -2.703125 -6.796875q-2.703125 -2.75 -7.21875 -3.046875zm-10.296867 30.30542l0.921875 5.796875q-3.484375 0.484375 -5.34375 2.71875q-1.859375 2.234375 -1.859375 6.234375q0 4.03125 1.640625 5.984375q1.65625 1.953125 3.859375 1.953125q1.984375 0 3.125 -1.71875q0.78125 -1.203125 1.984375 -6.0q1.640625 -6.4375 2.828125 -8.9375q1.1875 -2.484375 3.2812424 -3.765625q2.09375 -1.28125 4.640625 -1.28125q2.3125 0 4.28125 1.046875q1.96875 1.0625 3.265625 2.890625q1.015625 1.359375 1.703125 3.71875q0.703125 2.359375 0.703125 5.0625q0 4.078125 -1.171875 7.140625q-1.171875 3.078125 -3.171875 4.546875q-2.0 1.46875 -5.359375 2.015625l-0.78125 -5.71875q2.671875 -0.390625 4.171875 -2.265625q1.5 -1.875 1.5 -5.296875q0 -4.03125 -1.34375 -5.765625q-1.328125 -1.71875 -3.125 -1.71875q-1.125 0 -2.046875 0.71875q-0.9375 0.71875 -1.5625 2.25q-0.328125 0.875 -1.5 5.171875q-1.65625 6.21875 -2.7187424 8.671875q-1.046875 2.453125 -3.0625 3.84375q-2.015625 1.40625 -5.015625 1.40625q-2.9375 0 -5.53125 -1.703125q-2.578125 -1.703125 -4.0 -4.9375q-1.40625 -3.21875 -1.40625 -7.28125q0 -6.734375 2.796875 -10.265625q2.796875 -3.53125 8.296875 -4.515625zm0 33.328125l0.921875 5.796875q-3.484375 0.484375 -5.34375 2.71875q-1.859375 2.234375 -1.859375 6.234375q0 4.03125 1.640625 5.984375q1.65625 1.953125 3.859375 1.953125q1.984375 0 3.125 -1.71875q0.78125 -1.203125 1.984375 -6.0q1.640625 -6.4375 2.828125 -8.9375q1.1875 -2.484375 3.2812424 -3.765625q2.09375 -1.28125 4.640625 -1.28125q2.3125 0 4.28125 1.046875q1.96875 1.0625 3.265625 2.890625q1.015625 1.359375 1.703125 3.71875q0.703125 2.359375 0.703125 5.0625q0 4.078125 -1.171875 7.140625q-1.171875 3.078125 -3.171875 4.546875q-2.0 1.46875 -5.359375 2.015625l-0.78125 -5.71875q2.671875 -0.390625 4.171875 -2.265625q1.5 -1.875 1.5 -5.296875q0 -4.03125 -1.34375 -5.765625q-1.328125 -1.71875 -3.125 -1.71875q-1.125 0 -2.046875 0.71875q-0.9375 0.71875 -1.5625 2.25q-0.328125 0.875 -1.5 5.171875q-1.65625 6.21875 -2.7187424 8.671875q-1.046875 2.453125 -3.0625 3.84375q-2.015625 1.40625 -5.015625 1.40625q-2.9375 0 -5.53125 -1.703125q-2.578125 -1.703125 -4.0 -4.9375q-1.40625 -3.21875 -1.40625 -7.28125q0 -6.734375 2.796875 -10.265625q2.796875 -3.53125 8.296875 -4.515625zm6.96875 33.5q9.609367 0 14.218742 5.328125q3.84375 4.46875 3.84375 10.875q0 7.125 -4.671875 11.640625q-4.671875 4.53125 -12.906242 4.53125q-6.671875 0 -10.5 -2.0q-3.8125 -2.0 -5.9375 -5.828125q-2.109375 -3.8125 -2.109375 -8.34375q0 -7.265625 4.65625 -11.734375q4.65625 -4.46875 13.40625 -4.46875zm0 6.015625q-6.640625 0 -9.953125 2.890625q-3.296875 2.90625 -3.296875 7.296875q0 4.359375 3.3125 7.25q3.328125 2.90625 10.140625 2.90625q6.4062424 0 9.703117 -2.921875q3.3125 -2.90625 3.3125 -7.234375q0 -4.390625 -3.296875 -7.296875q-3.28125 -2.890625 -9.921867 -2.890625zm-17.28125 33.164795l34.562492 0l0 5.265625l-5.234375 0q3.671875 2.03125 4.84375 3.734375q1.171875 1.703125 1.171875 3.765625q0 2.953125 -1.890625 6.015625l-5.4375 -2.015625q1.28125 -2.15625 1.28125 -4.296875q0 -1.921875 -1.15625 -3.453125q-1.15625 -1.53125 -3.203125 -2.1875q-3.125 -0.96875 -6.8437424 -0.96875l-18.09375 0l0 -5.859375zm10.3125 19.915771l0.921875 5.796875q-3.484375 0.484375 -5.34375 2.71875q-1.859375 2.234375 -1.859375 6.234375q0 4.03125 1.640625 5.984375q1.65625 1.953125 3.859375 1.953125q1.984375 0 3.125 -1.71875q0.78125 -1.203125 1.984375 -6.0q1.640625 -6.4375 2.828125 -8.9375q1.1875 -2.484375 3.2812424 -3.765625q2.09375 -1.28125 4.640625 -1.28125q2.3125 0 4.28125 1.046875q1.96875 1.0625 3.265625 2.890625q1.015625 1.359375 1.703125 3.71875q0.703125 2.359375 0.703125 5.0625q0 4.078125 -1.171875 7.140625q-1.171875 3.078125 -3.171875 4.546875q-2.0 1.46875 -5.359375 2.015625l-0.78125 -5.71875q2.671875 -0.390625 4.171875 -2.265625q1.5 -1.875 1.5 -5.296875q0 -4.03125 -1.34375 -5.765625q-1.328125 -1.71875 -3.125 -1.71875q-1.125 0 -2.046875 0.71875q-0.9375 0.71875 -1.5625 2.25q-0.328125 0.875 -1.5 5.171875q-1.65625 6.21875 -2.7187424 8.671875q-1.046875 2.453125 -3.0625 3.84375q-2.015625 1.40625 -5.015625 1.40625q-2.9375 0 -5.53125 -1.703125q-2.578125 -1.703125 -4.0 -4.9375q-1.40625 -3.21875 -1.40625 -7.28125q0 -6.734375 2.796875 -10.265625q2.796875 -3.53125 8.296875 -4.515625z" fill-rule="nonzero"/><path fill="#000000" d="m369.86877 11.2979l0 52.0l-36.0 0l0 -52.0z" fill-rule="evenodd"/><path stroke="#000000" stroke-width="4.0" stroke-linejoin="round" stroke-linecap="butt" d="m369.86877 11.2979l0 52.0l-36.0 0l0 -52.0z" fill-rule="evenodd"/><path fill="#000000" d="m341.86877 81.2979l0 52.0l-36.0 0l0 -52.0z" fill-rule="evenodd"/><path stroke="#000000" stroke-width="4.0" stroke-linejoin="round" stroke-linecap="butt" d="m341.86877 81.2979l0 52.0l-36.0 0l0 -52.0z" fill-rule="evenodd"/><path fill="#000000" d="m311.86877 17.297901l0 51.999996l-36.0 0l0 -51.999996z" fill-rule="evenodd"/><path stroke="#000000" stroke-width="4.0" stroke-linejoin="round" stroke-linecap="butt" d="m311.86877 17.297901l0 51.999996l-36.0 0l0 -51.999996z" fill-rule="evenodd"/><path fill="#000000" d="m350.12073 385.2979l53.007874 30.0l-53.007874 30.0z" fill-rule="evenodd"/><path stroke="#000000" stroke-width="4.0" stroke-linejoin="round" stroke-linecap="butt" d="m350.12073 385.2979l53.007874 30.0l-53.007874 30.0z" fill-rule="evenodd"/><path fill="#000000" d="m258.8609 419.99344l53.007874 30.0l-53.007874 30.0z" fill-rule="evenodd"/><path stroke="#000000" stroke-width="4.0" stroke-linejoin="round" stroke-linecap="butt" d="m258.8609 419.99344l53.007874 30.0l-53.007874 30.0z" fill-rule="evenodd"/><path fill="#000000" d="m281.99738 319.9987l53.007874 30.0l-53.007874 30.0z" fill-rule="evenodd"/><path stroke="#000000" stroke-width="4.0" stroke-linejoin="round" stroke-linecap="butt" d="m281.99738 319.9987l53.007874 30.0l-53.007874 30.0z" fill-rule="evenodd"/><path fill="#000000" fill-opacity="0.0" d="m320.8399 160.2979l4.031494 152.00002" fill-rule="evenodd"/><path stroke="#000000" stroke-width="12.0" stroke-linejoin="round" stroke-linecap="butt" d="m320.8399 160.2979l2.1224976 80.02533" fill-rule="evenodd"/><path fill="#000000" stroke="#000000" stroke-width="12.0" stroke-linecap="butt" d="m303.1486 240.84874l21.25769 53.91249l18.369934 -54.96353z" fill-rule="evenodd"/></g></svg>