<svg version="1.1" viewBox="0.0 0.0 428.16010498687666 428.4488188976378" fill="none" stroke="none" stroke-linecap="square" stroke-miterlimit="10" xmlns:xlink="http://www.w3.org/1999/xlink" xmlns="http://www.w3.org/2000/svg"><clipPath id="p.0"><path d="m0 0l428.1601 0l0 428.44882l-428.1601 0l0 -428.44882z" clip-rule="nonzero"/></clipPath><g clip-path="url(#p.0)"><path fill="#000000" fill-opacity="0.0" d="m0 0l428.1601 0l0 428.44882l-428.1601 0z" fill-rule="evenodd"/><path fill="#5d0f91" d="m298.40945 112.13911l0 0c56.19388 0 101.74802 45.758614 101.74802 102.20472l0 0c0 27.106384 -10.719849 53.102554 -29.8013 72.26967c-19.081451 19.167084 -44.961456 29.935059 -71.94672 29.935059l0 0c-56.193893 0 -101.74803 -45.758606 -101.74803 -102.20473l0 0c0 -56.446106 45.55414 -102.20472 101.74803 -102.20472z" fill-rule="evenodd"/><path fill="#000000" fill-opacity="0.0" d="m145.88452 1.0052488l0 426.67715l-104.44095 0l0 -426.67715z" fill-rule="evenodd"/><path fill="#000000" d="m72.06404 15.575272l42.953125 0l0 16.203125q0 4.28125 -0.40625 6.53125q-0.53125 3.171875 -2.015625 5.3125q-1.484375 2.140625 -4.15625 3.4375q-2.65625 1.296875 -5.84375 1.296875q-5.484375 0 -9.28125 -3.484375q-3.78125 -3.484375 -3.78125 -12.59375l0 -11.015625l-17.46875 0l0 -5.6875zm22.53125 5.6875l0 11.109375q0 5.5 2.046875 7.8125q2.046875 2.3125 5.78125 2.3125q2.6875 0 4.609375 -1.359375q1.921875 -1.359375 2.53125 -3.578125q0.375 -1.4375 0.375 -5.3125l0 -10.984375l-15.34375 0zm-22.53125 33.597656l31.109375 0l0 4.75l-4.71875 0q3.3125 1.8125 4.359375 3.34375q1.0625 1.546875 1.0625 3.390625q0 2.671875 -1.6875 5.421875l-4.90625 -1.8125q1.15625 -1.9375 1.15625 -3.859375q0 -1.734375 -1.046875 -3.109375q-1.046875 -1.375 -2.890625 -1.96875q-2.8125 -0.875 -6.140625 -0.875l-16.296875 0l0 -5.28125zm10.015625 41.339844l-0.671875 5.453125q-4.765625 -1.28125 -7.40625 -4.78125q-2.640625 -3.484375 -2.640625 -8.90625q0 -6.8125 4.203125 -10.8125q4.203125 -4.0 11.796875 -4.0q7.84375 0 12.171875 4.03125q4.34375 4.046875 4.34375 10.5q0 6.234375 -4.25 10.1875q-4.234375 3.953125 -11.953125 3.953125q-0.46875 0 -1.40625 -0.03125l0 -23.203125q-5.125 0.296875 -7.84375 2.90625q-2.71875 2.609375 -2.71875 6.5q0 2.90625 1.515625 4.953125q1.53125 2.046875 4.859375 3.25zm8.53125 -17.3125l0 17.375q3.921875 -0.34375 5.890625 -1.984375q3.046875 -2.53125 3.046875 -6.546875q0 -3.625 -2.4375 -6.109375q-2.421875 -2.46875 -6.5 -2.734375zm-5.65625 27.33789l5.296875 0l0 16.203125l-5.296875 0l0 -16.203125zm-24.8125 22.027344l43.03125 0l0 4.8125l-4.03125 0q2.359375 1.6875 3.546875 3.828125q1.1875 2.140625 1.1875 5.1875q0 3.984375 -2.046875 7.03125q-2.046875 3.046875 -5.78125 4.59375q-3.734375 1.5625 -8.1875 1.5625q-4.78125 0 -8.609375 -1.71875q-3.8125 -1.703125 -5.859375 -4.984375q-2.03125 -3.265625 -2.03125 -6.859375q0 -2.640625 1.109375 -4.734375q1.125 -2.09375 2.8125 -3.4375l-15.140625 0l0 -5.28125zm27.296875 4.78125q-6.0 0 -8.875 2.421875q-2.859375 2.4375 -2.859375 5.890625q0 3.515625 2.96875 6.015625q2.96875 2.515625 9.21875 2.515625q5.9375 0 8.890625 -2.453125q2.96875 -2.4375 2.96875 -5.84375q0 -3.359375 -3.15625 -5.953125q-3.140625 -2.59375 -9.15625 -2.59375zm-15.375 28.52539l31.109375 0l0 4.75l-4.71875 0q3.3125 1.8125 4.359375 3.34375q1.0625 1.546875 1.0625 3.390625q0 2.671875 -1.6875 5.421875l-4.90625 -1.8125q1.15625 -1.9375 1.15625 -3.859375q0 -1.734375 -1.046875 -3.109375q-1.046875 -1.375 -2.890625 -1.96875q-2.8125 -0.875 -6.140625 -0.875l-16.296875 0l0 -5.28125zm15.5625 18.089844q8.640625 0 12.796875 4.796875q3.453125 4.015625 3.453125 9.78125q0 6.421875 -4.203125 10.484375q-4.203125 4.078125 -11.609375 4.078125q-6.015625 0 -9.453125 -1.796875q-3.4375 -1.796875 -5.34375 -5.25q-1.90625 -3.4375 -1.90625 -7.515625q0 -6.53125 4.1875 -10.5625q4.1875 -4.015625 12.078125 -4.015625zm0 5.40625q-5.984375 0 -8.953125 2.609375q-2.96875 2.609375 -2.96875 6.5625q0 3.9375 2.984375 6.53125q2.984375 2.609375 9.109375 2.609375q5.765625 0 8.734375 -2.625q2.984375 -2.609375 2.984375 -6.515625q0 -3.953125 -2.96875 -6.5625q-2.953125 -2.609375 -8.921875 -2.609375zm-4.171875 50.228516l-0.671875 5.171875q-5.359375 -0.84375 -8.390625 -4.34375q-3.03125 -3.5 -3.03125 -8.59375q0 -6.390625 4.171875 -10.28125q4.171875 -3.875 11.96875 -3.875q5.046875 0 8.8125 1.671875q3.78125 1.671875 5.671875 5.078125q1.890625 3.421875 1.890625 7.4375q0 5.0625 -2.5625 8.28125q-2.5625 3.21875 -7.28125 4.140625l-0.78125 -5.140625q3.125 -0.71875 4.703125 -2.59375q1.59375 -1.859375 1.59375 -4.484375q0 -3.984375 -2.859375 -6.484375q-2.859375 -2.484375 -9.03125 -2.484375q-6.28125 0 -9.125 2.390625q-2.828125 2.40625 -2.828125 6.28125q0 3.109375 1.890625 5.1875q1.90625 2.078125 5.859375 2.640625zm-1.375 30.98436l-0.671875 5.453125q-4.765625 -1.28125 -7.40625 -4.78125q-2.640625 -3.484375 -2.640625 -8.90625q0 -6.8124847 4.203125 -10.812485q4.203125 -4.0 11.796875 -4.0q7.84375 0 12.171875 4.03125q4.34375 4.046875 4.34375 10.499985q0 6.234375 -4.25 10.1875q-4.234375 3.953125 -11.953125 3.953125q-0.46875 0 -1.40625 -0.03125l0 -23.20311q-5.125 0.296875 -7.84375 2.90625q-2.71875 2.609375 -2.71875 6.4999847q0 2.90625 1.515625 4.953125q1.53125 2.046875 4.859375 3.25zm8.53125 -17.312485l0 17.374985q3.921875 -0.34375 5.890625 -1.984375q3.046875 -2.53125 3.046875 -6.546875q0 -3.6249847 -2.4375 -6.1093597q-2.421875 -2.46875 -6.5 -2.734375zm-9.265625 27.275375l0.828125 5.21875q-3.140625 0.4375 -4.8125 2.4375q-1.65625 2.015625 -1.65625 5.625q0 3.625 1.46875 5.375q1.484375 1.765625 3.46875 1.765625q1.796875 0 2.8125 -1.546875q0.703125 -1.09375 1.796875 -5.390625q1.46875 -5.8125 2.53125 -8.046875q1.0625 -2.234375 2.953125 -3.40625q1.890625 -1.15625 4.1875 -1.15625q2.078125 0 3.84375 0.953125q1.78125 0.953125 2.953125 2.59375q0.90625 1.234375 1.53125 3.359375q0.625 2.125 0.625 4.5625q0 3.65625 -1.0625 6.421875q-1.046875 2.765625 -2.84375 4.078125q-1.796875 1.328125 -4.8125 1.828125l-0.703125 -5.15625q2.390625 -0.359375 3.734375 -2.046875q1.359375 -1.671875 1.359375 -4.75q0 -3.640625 -1.203125 -5.1875q-1.203125 -1.546875 -2.8125 -1.546875q-1.03125 0 -1.84375 0.640625q-0.859375 0.640625 -1.40625 2.015625q-0.296875 0.796875 -1.34375 4.65625q-1.5 5.609375 -2.453125 7.8125q-0.953125 2.21875 -2.765625 3.46875q-1.8125 1.265625 -4.515625 1.265625q-2.640625 0 -4.96875 -1.546875q-2.328125 -1.53125 -3.609375 -4.4375q-1.265625 -2.890625 -1.265625 -6.5625q0 -6.0625 2.515625 -9.25q2.53125 -3.171875 7.46875 -4.046875zm0 30.0l0.828125 5.21875q-3.140625 0.4375 -4.8125 2.4375q-1.65625 2.015625 -1.65625 5.625q0 3.625 1.46875 5.375q1.484375 1.765625 3.46875 1.765625q1.796875 0 2.8125 -1.546875q0.703125 -1.09375 1.796875 -5.390625q1.46875 -5.8125 2.53125 -8.046875q1.0625 -2.234375 2.953125 -3.40625q1.890625 -1.15625 4.1875 -1.15625q2.078125 0 3.84375 0.953125q1.78125 0.953125 2.953125 2.59375q0.90625 1.234375 1.53125 3.359375q0.625 2.125 0.625 4.5625q0 3.65625 -1.0625 6.421875q-1.046875 2.765625 -2.84375 4.078125q-1.796875 1.328125 -4.8125 1.828125l-0.703125 -5.15625q2.390625 -0.359375 3.734375 -2.046875q1.359375 -1.671875 1.359375 -4.75q0 -3.640625 -1.203125 -5.1875q-1.203125 -1.546875 -2.8125 -1.546875q-1.03125 0 -1.84375 0.640625q-0.859375 0.640625 -1.40625 2.015625q-0.296875 0.796875 -1.34375 4.65625q-1.5 5.609375 -2.453125 7.8125q-0.953125 2.21875 -2.765625 3.46875q-1.8125 1.265625 -4.515625 1.265625q-2.640625 0 -4.96875 -1.546875q-2.328125 -1.53125 -3.609375 -4.4375q-1.265625 -2.890625 -1.265625 -6.5625q0 -6.0625 2.515625 -9.25q2.53125 -3.171875 7.46875 -4.046875zm6.28125 30.15625q8.640625 0 12.796875 4.796875q3.453125 4.015625 3.453125 9.78125q0 6.421875 -4.203125 10.484375q-4.203125 4.078125 -11.609375 4.078125q-6.015625 0 -9.453125 -1.796875q-3.4375 -1.796875 -5.34375 -5.25q-1.90625 -3.4375 -1.90625 -7.515625q0 -6.53125 4.1875 -10.5625q4.1875 -4.015625 12.078125 -4.015625zm0 5.40625q-5.984375 0 -8.953125 2.609375q-2.96875 2.609375 -2.96875 6.5625q0 3.9375 2.984375 6.53125q2.984375 2.609375 9.109375 2.609375q5.765625 0 8.734375 -2.625q2.984375 -2.609375 2.984375 -6.515625q0 -3.953125 -2.96875 -6.5625q-2.953125 -2.609375 -8.921875 -2.609375zm-15.5625 29.853516l31.109375 0l0 4.75l-4.71875 0q3.3125 1.8125 4.359375 3.34375q1.0625 1.546875 1.0625 3.390625q0 2.671875 -1.6875 5.421875l-4.90625 -1.8125q1.15625 -1.9375 1.15625 -3.859375q0 -1.734375 -1.046875 -3.109375q-1.046875 -1.375 -2.890625 -1.96875q-2.8125 -0.875 -6.140625 -0.875l-16.296875 0l0 -5.28125zm9.28125 17.933594l0.828125 5.21875q-3.140625 0.4375 -4.8125 2.4375q-1.65625 2.015625 -1.65625 5.625q0 3.625 1.46875 5.375q1.484375 1.765625 3.46875 1.765625q1.796875 0 2.8125 -1.546875q0.703125 -1.09375 1.796875 -5.390625q1.46875 -5.8125 2.53125 -8.046875q1.0625 -2.234375 2.953125 -3.40625q1.890625 -1.15625 4.1875 -1.15625q2.078125 0 3.84375 0.953125q1.78125 0.953125 2.953125 2.59375q0.90625 1.234375 1.53125 3.359375q0.625 2.125 0.625 4.5625q0 3.65625 -1.0625 6.421875q-1.046875 2.765625 -2.84375 4.078125q-1.796875 1.328125 -4.8125 1.828125l-0.703125 -5.15625q2.390625 -0.359375 3.734375 -2.046875q1.359375 -1.671875 1.359375 -4.75q0 -3.640625 -1.203125 -5.1875q-1.203125 -1.546875 -2.8125 -1.546875q-1.03125 0 -1.84375 0.640625q-0.859375 0.640625 -1.40625 2.015625q-0.296875 0.796875 -1.34375 4.65625q-1.5 5.609375 -2.453125 7.8125q-0.953125 2.21875 -2.765625 3.46875q-1.8125 1.265625 -4.515625 1.265625q-2.640625 0 -4.96875 -1.546875q-2.328125 -1.53125 -3.609375 -4.4375q-1.265625 -2.890625 -1.265625 -6.5625q0 -6.0625 2.515625 -9.25q2.53125 -3.171875 7.46875 -4.046875z" fill-rule="nonzero"/></g></svg>