<svg version="1.1" viewBox="0.0 0.0 428.16010498687666 428.4488188976378" fill="none" stroke="none" stroke-linecap="square" stroke-miterlimit="10" xmlns:xlink="http://www.w3.org/1999/xlink" xmlns="http://www.w3.org/2000/svg"><clipPath id="p.0"><path d="m0 0l428.1601 0l0 428.44882l-428.1601 0l0 -428.44882z" clip-rule="nonzero"/></clipPath><g clip-path="url(#p.0)"><path fill="#000000" fill-opacity="0.0" d="m0 0l428.1601 0l0 428.44882l-428.1601 0z" fill-rule="evenodd"/><path fill="#000000" fill-opacity="0.0" d="m147.4462 1.9868766l0 414.01575l-104.44095 0l0 -414.01575z" fill-rule="evenodd"/><path fill="#000000" d="m67.86572 20.677368l54.40625 0l0 24.125q0 7.28125 -1.46875 11.0625q-1.46875 3.78125 -5.1875 6.046875q-3.703125 2.265625 -8.1875 2.265625q-5.796875 0 -9.765625 -3.75q-3.96875 -3.75 -5.046875 -11.578125q-1.375 2.859375 -2.703125 4.34375q-2.890625 3.15625 -7.234375 5.96875l-14.8125 9.46875l0 -9.0625l11.3125 -7.1875q4.90625 -3.15625 7.5 -5.203125q2.59375 -2.03125 3.625 -3.65625q1.046875 -1.609375 1.46875 -3.28125q0.25 -1.21875 0.25 -4.0l0 -8.359375l-24.15625 0l0 -7.203125zm30.390625 7.203125l0 15.484375q0 4.921875 1.015625 7.703125q1.03125 2.796875 3.265625 4.234375q2.25 1.453125 4.890625 1.453125q3.859375 0 6.34375 -2.8125q2.484375 -2.796875 2.484375 -8.84375l0 -17.21875l-18.0 0zm-17.703125 73.697266l-0.84375 6.90625q-6.046875 -1.625 -9.390625 -6.046875q-3.34375 -4.421875 -3.34375 -11.28125q0 -8.640625 5.328125 -13.71875q5.328125 -5.0625 14.9375 -5.0625q9.9375 0 15.421875 5.125q5.5 5.125 5.5 13.28125q0 7.90625 -5.375 12.90625q-5.375 5.015625 -15.140625 5.015625q-0.59375 0 -1.78125 -0.03125l0 -29.390625q-6.5 0.375 -9.953125 3.671875q-3.4375 3.296875 -3.4375 8.234375q0 3.671875 1.921875 6.265625q1.9375 2.609375 6.15625 4.125zm10.796875 -21.921875l0 22.0q4.984375 -0.4375 7.46875 -2.515625q3.859375 -3.203125 3.859375 -8.28125q0 -4.609375 -3.078125 -7.75q-3.078125 -3.125 -8.25 -3.453125zm-26.75 35.98633l-0.9687538 6.5q-3.0 0.40625 -4.375 2.265625q-1.859375 2.484375 -1.859375 6.78125q0 4.640625 1.859375 7.15625q1.859375 2.53125 5.187504 3.421875q2.046875 0.53125 8.578125 0.484375q-5.15625 -4.375 -5.15625 -10.90625q0 -8.125 5.859375 -12.578125q5.875 -4.453125 14.0625 -4.453125q5.640625 0 10.40625 2.03125q4.78125 2.046875 7.375 5.921875q2.59375 3.875 2.59375 9.109375q0 6.984375 -5.640625 11.515625l4.75 0l0 6.15625l-34.0625 0q-9.203125 0 -13.046879 -1.875q-3.84375 -1.875 -6.0625 -5.9375q-2.234375 -4.0625 -2.234375 -10.0q0 -7.046875 3.171875 -11.390625q3.171875 -4.34375 9.562504 -4.203125zm23.671875 5.53125q-7.75 0 -11.3125 3.078125q-3.5625 3.078125 -3.5625 7.71875q0 4.609375 3.546875 7.71875q3.546875 3.125 11.109375 3.125q7.234375 0 10.90625 -3.21875q3.671875 -3.203125 3.671875 -7.734375q0 -4.453125 -3.625 -7.578125q-3.609375 -3.109375 -10.734375 -3.109375zm-20.40625 37.89258l39.40625 0l0 6.015625l-5.96875 0q4.1875 2.296875 5.515625 4.234375q1.34375 1.953125 1.34375 4.296875q0 3.375 -2.140625 6.859375l-6.203125 -2.296875q1.453125 -2.453125 1.453125 -4.890625q0 -2.203125 -1.328125 -3.953125q-1.3125 -1.734375 -3.65625 -2.46875q-3.5625 -1.125 -7.78125 -1.125l-20.640625 0l0 -6.671875zm12.6875 52.35547l-0.84375 6.90625q-6.046875 -1.625 -9.390625 -6.046875q-3.34375 -4.421875 -3.34375 -11.28125q0 -8.640625 5.328125 -13.71875q5.328125 -5.0625 14.9375 -5.0625q9.9375 0 15.421875 5.125q5.5 5.125 5.5 13.28125q0 7.90625 -5.375 12.90625q-5.375 5.015625 -15.140625 5.015625q-0.59375 0 -1.78125 -0.03125l0 -29.390625q-6.5 0.375 -9.953125 3.671875q-3.4375 3.296875 -3.4375 8.234375q0 3.671875 1.921875 6.265625q1.9375 2.609375 6.15625 4.125zm10.796875 -21.921875l0 22.0q4.984375 -0.4375 7.46875 -2.515625q3.859375 -3.203125 3.859375 -8.28125q0 -4.609375 -3.078125 -7.75q-3.078125 -3.125 -8.25 -3.453125zm-11.71875 34.54883l1.03125 6.59375q-3.96875 0.5625 -6.078125 3.09375q-2.109375 2.546875 -2.109375 7.125q0 4.59375 1.859375 6.8125q1.875 2.234375 4.40625 2.234375q2.265625 0 3.5625 -1.96875q0.890625 -1.375 2.265625 -6.828125q1.859375 -7.34375 3.203125 -10.1875q1.359375 -2.828125 3.75 -4.296875q2.390625 -1.46875 5.296875 -1.46875q2.625 0 4.875 1.203125q2.25 1.203125 3.734375 3.28125q1.140625 1.5625 1.9375 4.25q0.796875 2.6875 0.796875 5.78125q0 4.625 -1.34375 8.125q-1.328125 3.515625 -3.609375 5.1875q-2.28125 1.671875 -6.09375 2.296875l-0.890625 -6.53125q3.03125 -0.4375 4.734375 -2.578125q1.71875 -2.125 1.71875 -6.03125q0 -4.59375 -1.53125 -6.5625q-1.515625 -1.96875 -3.5625 -1.96875q-1.296875 0 -2.328125 0.8125q-1.078125 0.828125 -1.78125 2.5625q-0.375 1.0 -1.703125 5.90625q-1.90625 7.09375 -3.109375 9.890625q-1.203125 2.796875 -3.5 4.390625q-2.296875 1.59375 -5.71875 1.59375q-3.34375 0 -6.296875 -1.953125q-2.9375 -1.9375 -4.5625 -5.609375q-1.609375 -3.671875 -1.609375 -8.3125q0 -7.6875 3.1875 -11.71875q3.203125 -4.015625 9.46875 -5.125zm0 38.0l1.03125 6.59375q-3.96875 0.5625 -6.078125 3.09375q-2.109375 2.546875 -2.109375 7.125q0 4.59375 1.859375 6.8125q1.875 2.234375 4.40625 2.234375q2.265625 0 3.5625 -1.96875q0.890625 -1.375 2.265625 -6.828125q1.859375 -7.34375 3.203125 -10.1875q1.359375 -2.828125 3.75 -4.296875q2.390625 -1.46875 5.296875 -1.46875q2.625 0 4.875 1.203125q2.25 1.203125 3.734375 3.28125q1.140625 1.5625 1.9375 4.25q0.796875 2.6875 0.796875 5.78125q0 4.625 -1.34375 8.125q-1.328125 3.515625 -3.609375 5.1875q-2.28125 1.671875 -6.09375 2.296875l-0.890625 -6.53125q3.03125 -0.4375 4.734375 -2.578125q1.71875 -2.125 1.71875 -6.03125q0 -4.59375 -1.53125 -6.5625q-1.515625 -1.96875 -3.5625 -1.96875q-1.296875 0 -2.328125 0.8125q-1.078125 0.828125 -1.78125 2.5625q-0.375 1.0 -1.703125 5.90625q-1.90625 7.09375 -3.109375 9.890625q-1.203125 2.796875 -3.5 4.390625q-2.296875 1.59375 -5.71875 1.59375q-3.34375 0 -6.296875 -1.953125q-2.9375 -1.9375 -4.5625 -5.609375q-1.609375 -3.671875 -1.609375 -8.3125q0 -7.6875 3.1875 -11.71875q3.203125 -4.015625 9.46875 -5.125zm7.9375 38.1875q10.953125 0 16.21875 6.078125q4.375 5.078125 4.375 12.390625q0 8.125 -5.328125 13.28125q-5.3125 5.171875 -14.703125 5.171875q-7.609375 0 -11.96875 -2.28125q-4.359375 -2.28125 -6.78125 -6.65625q-2.40625 -4.359375 -2.40625 -9.515625q0 -8.265625 5.296875 -13.375q5.3125 -5.09375 15.296875 -5.09375zm0 6.859375q-7.5625 0 -11.328125 3.296875q-3.765625 3.3125 -3.765625 8.3125q0 4.984375 3.78125 8.28125q3.78125 3.296875 11.53125 3.296875q7.3125 0 11.078125 -3.328125q3.765625 -3.3125 3.765625 -8.25q0 -5.0 -3.75 -8.3125q-3.734375 -3.296875 -11.3125 -3.296875zm-19.703125 37.814453l39.40625 0l0 6.015625l-5.96875 0q4.1875 2.296875 5.515625 4.234375q1.34375 1.953125 1.34375 4.296875q0 3.375 -2.140625 6.859375l-6.203125 -2.296875q1.453125 -2.453125 1.453125 -4.890625q0 -2.203125 -1.328125 -3.953125q-1.3125 -1.734375 -3.65625 -2.46875q-3.5625 -1.125 -7.78125 -1.125l-20.640625 0l0 -6.671875zm11.765625 22.714844l1.03125 6.59375q-3.96875 0.5625 -6.078125 3.09375q-2.109375 2.546875 -2.109375 7.125q0 4.59375 1.859375 6.8125q1.875 2.234375 4.40625 2.234375q2.265625 0 3.5625 -1.96875q0.890625 -1.375 2.265625 -6.828125q1.859375 -7.34375 3.203125 -10.1875q1.359375 -2.828125 3.75 -4.296875q2.390625 -1.46875 5.296875 -1.46875q2.625 0 4.875 1.203125q2.25 1.203125 3.734375 3.28125q1.140625 1.5625 1.9375 4.25q0.796875 2.6875 0.796875 5.78125q0 4.625 -1.34375 8.125q-1.328125 3.515625 -3.609375 5.1875q-2.28125 1.671875 -6.09375 2.296875l-0.890625 -6.53125q3.03125 -0.4375 4.734375 -2.578125q1.71875 -2.125 1.71875 -6.03125q0 -4.59375 -1.53125 -6.5625q-1.515625 -1.96875 -3.5625 -1.96875q-1.296875 0 -2.328125 0.8125q-1.078125 0.828125 -1.78125 2.5625q-0.375 1.0 -1.703125 5.90625q-1.90625 7.09375 -3.109375 9.890625q-1.203125 2.796875 -3.5 4.390625q-2.296875 1.59375 -5.71875 1.59375q-3.34375 0 -6.296875 -1.953125q-2.9375 -1.9375 -4.5625 -5.609375q-1.609375 -3.671875 -1.609375 -8.3125q0 -7.6875 3.1875 -11.71875q3.203125 -4.015625 9.46875 -5.125z" fill-rule="nonzero"/><defs><linearGradient id="p.1" gradientUnits="userSpaceOnUse" gradientTransform="matrix(-14.32911697702346 0.0 0.0 -14.32911697702346 0.0 0.0)" spreadMethod="pad" x1="-27.926178630309707" y1="-22.114871835717615" x2="-27.92623014702058" y2="-7.785754858786759"><stop offset="0.0" stop-color="#ffa600"/><stop offset="0.17" stop-color="#ff8531"/><stop offset="0.47" stop-color="#ff8531"/><stop offset="0.7" stop-color="#ff6361"/><stop offset="1.0" stop-color="#de5a79"/></linearGradient></defs><path fill="url(#p.1)" d="m400.15747 214.22441l0 0c0 56.69832 -46.160492 102.66142 -103.102356 102.66142l0 0c-27.344452 0 -53.56894 -10.816101 -72.90437 -30.068848c-19.33545 -19.252747 -30.197983 -45.36508 -30.197983 -72.592575l0 0c0 -56.698334 46.160492 -102.661415 103.102356 -102.661415l0 0c56.941864 0 103.102356 45.96308 103.102356 102.661415z" fill-rule="evenodd"/></g></svg>