<svg version="1.1" viewBox="0.0 0.0 480.0 480.0" fill="none" stroke="none" stroke-linecap="square" stroke-miterlimit="10" xmlns:xlink="http://www.w3.org/1999/xlink" xmlns="http://www.w3.org/2000/svg"><clipPath id="p.0"><path d="m0 0l480.0 0l0 480.0l-480.0 0l0 -480.0z" clip-rule="nonzero"/></clipPath><g clip-path="url(#p.0)"><path fill="#000000" fill-opacity="0.0" d="m0 0l480.0 0l0 480.0l-480.0 0z" fill-rule="evenodd"/><path fill="#000000" fill-opacity="0.0" d="m246.65092 72.99213c0 83.50394 43.25197 125.255905 86.50392 167.00787c43.251984 41.751984 86.50394 83.50394 86.50394 167.00787" fill-rule="evenodd"/><path stroke="#000000" stroke-width="12.0" stroke-linejoin="round" stroke-linecap="butt" d="m259.36316 143.86101l0.2914734 0.73469543c0.18890381 0.47003174 0.37954712 0.93836975 0.57192993 1.4050293c0.76953125 1.8666534 1.5667725 3.7065582 2.3904114 5.5209656c3.2945862 7.257675 7.011566 14.107605 11.066437 20.631348c16.219482 26.094986 37.84546 46.970963 59.471436 67.846954c21.626007 20.875977 43.251984 41.751984 59.471466 67.846954c8.109741 13.047485 14.867859 27.39972 19.598541 43.709076c1.1826782 4.0773315 2.2386475 8.277008 3.157318 12.609192c0.11483765 0.5415039 0.22753906 1.0851135 0.3380432 1.6307983l0.05355835 0.27075195" fill-rule="evenodd"/><path fill="#000000" stroke="#000000" stroke-width="12.0" stroke-linecap="butt" d="m278.8726 140.36147l-29.124329 -50.10211l-9.894501 57.101196z" fill-rule="evenodd"/><path fill="#000000" stroke="#000000" stroke-width="12.0" stroke-linecap="butt" d="m415.77377 366.06674l-14.709503 -12.15979l16.937286 35.636536l9.932007 -38.18625z" fill-rule="evenodd"/><path fill="#000000" fill-opacity="0.0" d="m184.65092 23.149607l0 433.7008l-112.00001 0l0 -433.7008z" fill-rule="evenodd"/><path fill="#000000" d="m102.73092 63.564445l51.546883 0l0 22.859375q0 6.890625 -1.390625 10.46875q-1.390625 3.59375 -4.90625 5.734375q-3.515625 2.140625 -7.765625 2.140625q-5.484375 0 -9.25 -3.546875q-3.7656326 -3.546875 -4.7812576 -10.96875q-1.296875 2.703125 -2.5625 4.109375q-2.75 3.0 -6.859375 5.671875l-14.03125 8.953125l0 -8.578125l10.71875 -6.8125q4.640625 -2.984375 7.09375 -4.921875q2.46875 -1.9375 3.453125 -3.46875q0.984375 -1.53125 1.375 -3.109375q0.25 -1.15625 0.25 -3.796875l0 -7.90625l-22.890625 0l0 -6.828125zm28.796883 6.828125l0 14.65625q0 4.671875 0.96875 7.3125q0.96875 2.640625 3.09375 4.0q2.125 1.375 4.625 1.375q3.65625 0 6.0 -2.65625q2.359375 -2.640625 2.359375 -8.375l0 -16.3125l-17.046875 0zm-16.765633 69.82423l-0.8125 6.53125q-5.734375 -1.546875 -8.90625 -5.734375q-3.15625 -4.171875 -3.15625 -10.6875q0 -8.187508 5.046875 -12.984383q5.046875 -4.796875 14.15625 -4.796875q9.421883 0 14.625008 4.84375q5.203125 4.859375 5.203125 12.593758q0 7.484375 -5.109375 12.234375q-5.09375 4.75 -14.343758 4.75q-0.5625 0 -1.6875 -0.046875l0 -27.843758q-6.140625 0.359375 -9.421875 3.484375q-3.265625 3.125 -3.265625 7.8125076q0 3.46875 1.828125 5.921875q1.828125 2.46875 5.84375 3.921875zm10.21875 -20.781258l0 20.843758q4.7187576 -0.421875 7.0781326 -2.390625q3.65625 -3.015625 3.65625 -7.84375q0 -4.3593826 -2.921875 -7.3281326q-2.921875 -2.96875 -7.8125076 -3.28125zm-25.34375 34.105476l-0.921875 6.140625q-2.84375 0.390625 -4.140625 2.15625q-1.765625 2.34375 -1.765625 6.421875q0 4.40625 1.765625 6.796875q1.75 2.390625 4.921875 3.234375q1.9375 0.484375 8.125 0.453125q-4.890625 -4.15625 -4.890625 -10.34375q0 -7.6875 5.546875 -11.90625q5.5625 -4.21875 13.328125 -4.21875q5.34375 0 9.859383 1.921875q4.53125 1.9375 6.984375 5.609375q2.46875 3.671875 2.46875 8.640625q0 6.609375 -5.34375 10.890625l4.5 0l0 5.84375l-32.281258 0q-8.71875 0 -12.359375 -1.78125q-3.640625 -1.78125 -5.75 -5.625q-2.109375 -3.84375 -2.109375 -9.46875q0 -6.6875 3.015625 -10.796875q3.0 -4.109375 9.046875 -3.96875zm22.4375 5.234375q-7.359375 0 -10.734375 2.90625q-3.375 2.921875 -3.375 7.328125q0 4.359375 3.359375 7.3125q3.359375 2.953125 10.53125 2.953125q6.8593826 0 10.328133 -3.046875q3.484375 -3.046875 3.484375 -7.328125q0 -4.21875 -3.421875 -7.171875q-3.421875 -2.953125 -10.171883 -2.953125zm-19.34375 35.88672l37.343758 0l0 5.703125l-5.671875 0q3.984375 2.171875 5.25 4.015625q1.265625 1.859375 1.265625 4.0625q0 3.203125 -2.046875 6.515625l-5.875 -2.1875q1.375 -2.3125 1.375 -4.640625q0 -2.078125 -1.25 -3.734375q-1.25 -1.640625 -3.453125 -2.34375q-3.3750076 -1.0625 -7.3906326 -1.0625l-19.546875 0l0 -6.328125zm12.03125 49.617188l-0.8125 6.53125q-5.734375 -1.546875 -8.90625 -5.734375q-3.15625 -4.171875 -3.15625 -10.6875q0 -8.1875 5.046875 -12.984375q5.046875 -4.796875 14.15625 -4.796875q9.421883 0 14.625008 4.84375q5.203125 4.859375 5.203125 12.59375q0 7.484375 -5.109375 12.234375q-5.09375 4.75 -14.343758 4.75q-0.5625 0 -1.6875 -0.046875l0 -27.84375q-6.140625 0.359375 -9.421875 3.484375q-3.265625 3.125 -3.265625 7.8125q0 3.46875 1.828125 5.921875q1.828125 2.46875 5.84375 3.921875zm10.21875 -20.78125l0 20.84375q4.7187576 -0.421875 7.0781326 -2.390625q3.65625 -3.015625 3.65625 -7.84375q0 -4.359375 -2.921875 -7.328125q-2.921875 -2.96875 -7.8125076 -3.28125zm-11.109375 32.73047l0.984375 6.25q-3.75 0.53125 -5.765625 2.9375q-2.0 2.40625 -2.0 6.734375q0 4.359375 1.765625 6.46875q1.78125 2.109375 4.171875 2.109375q2.15625 0 3.375 -1.859375q0.84375 -1.296875 2.15625 -6.46875q1.75 -6.96875 3.03125 -9.65625q1.28125 -2.6875 3.546875 -4.078125q2.28125 -1.390625 5.0156326 -1.390625q2.5 0 4.625 1.140625q2.125 1.15625 3.53125 3.125q1.09375 1.46875 1.84375 4.015625q0.765625 2.546875 0.765625 5.46875q0 4.390625 -1.265625 7.71875q-1.265625 3.328125 -3.4375 4.90625q-2.15625 1.578125 -5.78125 2.171875l-0.84375 -6.1875q2.890625 -0.421875 4.5 -2.4375q1.625 -2.015625 1.625 -5.71875q0 -4.359375 -1.453125 -6.21875q-1.4375 -1.859375 -3.375 -1.859375q-1.21875 0 -2.203125 0.765625q-1.0312576 0.78125 -1.6875076 2.4375q-0.359375 0.9375 -1.625 5.578125q-1.796875 6.71875 -2.9375 9.375q-1.140625 2.65625 -3.328125 4.15625q-2.171875 1.515625 -5.40625 1.515625q-3.15625 0 -5.953125 -1.84375q-2.796875 -1.84375 -4.328125 -5.328125q-1.53125 -3.46875 -1.53125 -7.875q0 -7.265625 3.015625 -11.09375q3.03125 -3.8125 8.96875 -4.859375zm0 36.0l0.984375 6.25q-3.75 0.53125 -5.765625 2.9375q-2.0 2.40625 -2.0 6.734375q0 4.359375 1.765625 6.46875q1.78125 2.109375 4.171875 2.109375q2.15625 0 3.375 -1.859375q0.84375 -1.296875 2.15625 -6.46875q1.75 -6.96875 3.03125 -9.65625q1.28125 -2.6875 3.546875 -4.078125q2.28125 -1.390625 5.0156326 -1.390625q2.5 0 4.625 1.140625q2.125 1.15625 3.53125 3.125q1.09375 1.46875 1.84375 4.015625q0.765625 2.546875 0.765625 5.46875q0 4.390625 -1.265625 7.71875q-1.265625 3.328125 -3.4375 4.90625q-2.15625 1.578125 -5.78125 2.171875l-0.84375 -6.1875q2.890625 -0.421875 4.5 -2.4375q1.625 -2.015625 1.625 -5.71875q0 -4.359375 -1.453125 -6.21875q-1.4375 -1.859375 -3.375 -1.859375q-1.21875 0 -2.203125 0.765625q-1.0312576 0.78125 -1.6875076 2.4375q-0.359375 0.9375 -1.625 5.578125q-1.796875 6.71875 -2.9375 9.375q-1.140625 2.65625 -3.328125 4.15625q-2.171875 1.515625 -5.40625 1.515625q-3.15625 0 -5.953125 -1.84375q-2.796875 -1.84375 -4.328125 -5.328125q-1.53125 -3.46875 -1.53125 -7.875q0 -7.265625 3.015625 -11.09375q3.03125 -3.8125 8.96875 -4.859375zm33.125008 38.5625l7.28125 0l0 6.328125l-7.28125 0l0 -6.328125zm-44.265633 0l37.343758 0l0 6.328125l-37.343758 0l0 -6.328125zm18.671875 13.605469q10.375008 0 15.359383 5.765625q4.15625 4.8125 4.15625 11.75q0 7.6875 -5.046875 12.578125q-5.046875 4.890625 -13.937508 4.890625q-7.21875 0 -11.34375 -2.171875q-4.125 -2.15625 -6.421875 -6.296875q-2.28125 -4.125 -2.28125 -9.0q0 -7.84375 5.03125 -12.6875q5.03125 -4.828125 14.484375 -4.828125zm0 6.5q-7.171875 0 -10.75 3.125q-3.5625 3.140625 -3.5625 7.890625q0 4.703125 3.578125 7.828125q3.59375 3.140625 10.9375 3.140625q6.9375076 0 10.500008 -3.15625q3.5625 -3.140625 3.5625 -7.8125q0 -4.75 -3.546875 -7.890625q-3.546875 -3.125 -10.718758 -3.125zm-18.671875 35.902344l37.343758 0l0 5.6875l-5.3125 0q6.15625 4.125 6.15625 11.890625q0 3.375 -1.21875 6.203125q-1.21875 2.828125 -3.1875 4.234375q-1.96875 1.40625 -4.671875 1.96875q-1.75 0.359375 -6.1562576 0.359375l-22.953125 0l0 -6.328125l22.71875 0q3.8593826 0 5.7656326 -0.75q1.921875 -0.734375 3.0625 -2.625q1.15625 -1.875 1.15625 -4.40625q0 -4.03125 -2.578125 -6.96875q-2.5625 -2.9375 -9.734383 -2.9375l-20.390625 0l0 -6.328125z" fill-rule="nonzero"/></g></svg>