<svg version="1.1" viewBox="0.0 0.0 428.16010498687666 428.4488188976378" fill="none" stroke="none" stroke-linecap="square" stroke-miterlimit="10" xmlns:xlink="http://www.w3.org/1999/xlink" xmlns="http://www.w3.org/2000/svg"><clipPath id="p.0"><path d="m0 0l428.1601 0l0 428.44882l-428.1601 0l0 -428.44882z" clip-rule="nonzero"/></clipPath><g clip-path="url(#p.0)"><path fill="#000000" fill-opacity="0.0" d="m0 0l428.1601 0l0 428.44882l-428.1601 0z" fill-rule="evenodd"/><path fill="#000000" fill-opacity="0.0" d="m146.78477 0.8241433l0 426.80313l-104.44094 0l0 -426.80313z" fill-rule="evenodd"/><path fill="#000000" d="m65.764305 61.870255l57.265625 -22.1875l0 8.203125l-41.59375 14.875q-5.0 1.796875 -9.375 3.015625q4.6875 1.328125 9.375 3.078125l41.59375 15.46875l0 7.734375l-57.265625 -22.421875l0 -7.765625zm5.125 57.21875q-3.328125 -3.90625 -4.703125 -7.515625q-1.359375 -3.609375 -1.359375 -7.75q0 -6.84375 3.34375 -10.515625q3.34375 -3.671875 8.53125 -3.671875q3.046875 0 5.5625 1.390625q2.53125 1.390625 4.046875 3.625q1.53125 2.25 2.3125 5.0625q0.546875 2.078125 1.046875 6.25q1.015625 8.515625 2.421875 12.546875q1.453125 0.03125 1.84375 0.03125q4.296875 0 6.046875 -1.984375q2.390625 -2.703125 2.390625 -8.015625q0 -4.953125 -1.75 -7.328125q-1.734375 -2.359375 -6.140625 -3.484375l0.9375 -6.875q4.40625 0.9375 7.125 3.078125q2.71875 2.15625 4.171875 6.21875q1.46875 4.0625 1.46875 9.40625q0 5.3125 -1.25 8.625q-1.25 3.328125 -3.140625 4.890625q-1.890625 1.5625 -4.78125 2.1875q-1.796875 0.359375 -6.484375 0.359375l-9.375 0q-9.8125 0 -12.40625 0.4375q-2.59375 0.453125 -4.984375 1.78125l0 -7.34375q2.1875 -1.09375 5.125 -1.40625zm15.703125 -0.578125q-1.5625 -3.828125 -2.65625 -11.484375q-0.625 -4.34375 -1.40625 -6.140625q-0.78125 -1.796875 -2.296875 -2.78125q-1.5 -0.96875 -3.328125 -0.96875q-2.8125 0 -4.6875 2.125q-1.875 2.140625 -1.875 6.234375q0 4.0625 1.765625 7.21875q1.78125 3.171875 4.875 4.65625q2.375 1.140625 7.03125 1.140625l2.578125 0zm-20.828125 17.851562l57.265625 0l0 7.03125l-57.265625 0l0 -7.03125zm49.1875 17.960938l8.078125 0l0 7.03125l-8.078125 0l0 -7.03125zm-49.1875 0l41.484375 0l0 7.03125l-41.484375 0l0 -7.03125zm0 44.648438l5.234375 0q-6.171875 -3.9375 -6.171875 -11.59375q0 -4.96875 2.734375 -9.125q2.734375 -4.15625 7.640625 -6.453125q4.90625 -2.28125 11.265625 -2.28125q6.21875 0 11.265625 2.0625q5.0625 2.078125 7.75 6.21875q2.703125 4.140625 2.703125 9.265625q0 3.75 -1.578125 6.671875q-1.578125 2.9375 -4.125 4.765625l20.546875 0l0 7.0l-57.265625 0l0 -6.53125zm20.703125 -22.21875q-7.96875 0 -11.921875 3.359375q-3.9375 3.359375 -3.9375 7.921875q0 4.609375 3.765625 7.828125q3.78125 3.234375 11.515625 3.234375q8.515625 0 12.5 -3.28125q3.984375 -3.28125 3.984375 -8.09375q0 -4.6875 -3.828125 -7.828125q-3.828125 -3.140625 -12.078125 -3.140625zm-15.578125 66.86719q-3.328125 -3.90625 -4.703125 -7.515625q-1.359375 -3.609375 -1.359375 -7.75q0 -6.84375 3.34375 -10.515625q3.34375 -3.671875 8.53125 -3.671875q3.046875 0 5.5625 1.390625q2.53125 1.390625 4.046875 3.625q1.53125 2.25 2.3125 5.0625q0.546875 2.078125 1.046875 6.25q1.015625 8.515625 2.421875 12.546875q1.453125 0.03125 1.84375 0.03125q4.296875 0 6.046875 -1.984375q2.390625 -2.703125 2.390625 -8.015625q0 -4.953125 -1.75 -7.328125q-1.734375 -2.359375 -6.140625 -3.484375l0.9375 -6.875q4.40625 0.9375 7.125 3.078125q2.71875 2.15625 4.171875 6.21875q1.46875 4.0625 1.46875 9.40625q0 5.3125 -1.25 8.625q-1.25 3.328125 -3.140625 4.890625q-1.890625 1.5625 -4.78125 2.1875q-1.796875 0.359375 -6.484375 0.359375l-9.375 0q-9.8125 0 -12.40625 0.4375q-2.59375 0.453125 -4.984375 1.78125l0 -7.34375q2.1875 -1.09375 5.125 -1.40625zm15.703125 -0.578125q-1.5625 -3.828125 -2.65625 -11.484375q-0.625 -4.34375 -1.40625 -6.140625q-0.78125 -1.796875 -2.296875 -2.78125q-1.5 -0.96875 -3.328125 -0.96875q-2.8125 0 -4.6875 2.125q-1.875 2.140625 -1.875 6.234375q0 4.0625 1.765625 7.21875q1.78125 3.171875 4.875 4.65625q2.375 1.140625 7.03125 1.140625l2.578125 0zm-14.53125 33.351578l-6.21875 1.015625q-0.625 -2.96875 -0.625 -5.3125q0 -3.828125 1.203125 -5.9375q1.21875 -2.109375 3.1875 -2.96875q1.984375 -0.859375 8.3125 -0.859375l23.859375 0l0 -5.15625l5.46875 0l0 5.15625l10.28125 0l4.21875 7.0l-14.5 0l0 7.0625l-5.46875 0l0 -7.0625l-24.25 0q-3.015625 0 -3.875 0.359375q-0.859375 0.375 -1.375 1.21875q-0.5 0.84375 -0.5 2.40625q0 1.171875 0.28125 3.078125zm14.453125 4.2578125q11.515625 0 17.0625 6.40625q4.609375 5.359375 4.609375 13.046875q0 8.5625 -5.609375 13.984375q-5.59375 5.4375 -15.484375 5.4375q-8.0 0 -12.59375 -2.40625q-4.59375 -2.40625 -7.140625 -7.0q-2.53125 -4.578125 -2.53125 -10.015625q0 -8.703125 5.578125 -14.078125q5.59375 -5.375 16.109375 -5.375zm0 7.234375q-7.96875 0 -11.9375 3.46875q-3.96875 3.484375 -3.96875 8.75q0 5.234375 3.984375 8.703125q3.984375 3.484375 12.15625 3.484375q7.6875 0 11.65625 -3.5q3.96875 -3.484375 3.96875 -8.6875q0 -5.265625 -3.953125 -8.75q-3.9375 -3.46875 -11.90625 -3.46875zm-20.75 39.804688l41.484375 0l0 6.328125l-6.28125 0q4.40625 2.421875 5.8125 4.46875q1.40625 2.046875 1.40625 4.515625q0 3.546875 -2.265625 7.21875l-6.515625 -2.421875q1.515625 -2.578125 1.515625 -5.15625q0 -2.296875 -1.390625 -4.140625q-1.375 -1.828125 -3.84375 -2.609375q-3.75 -1.171875 -8.203125 -1.171875l-21.71875 0l0 -7.03125zm12.390625 23.90625l1.09375 6.953125q-4.1875 0.578125 -6.421875 3.25q-2.21875 2.6875 -2.21875 7.484375q0 4.84375 1.96875 7.1875q1.984375 2.34375 4.640625 2.34375q2.375 0 3.75 -2.0625q0.9375 -1.453125 2.375 -7.1875q1.953125 -7.734375 3.375 -10.734375q1.4375 -2.984375 3.953125 -4.53125q2.515625 -1.53125 5.5625 -1.53125q2.78125 0 5.140625 1.265625q2.359375 1.265625 3.921875 3.453125q1.21875 1.640625 2.046875 4.46875q0.84375 2.84375 0.84375 6.078125q0 4.890625 -1.40625 8.578125q-1.40625 3.6875 -3.8125 5.4375q-2.390625 1.765625 -6.421875 2.4375l-0.9375 -6.875q3.203125 -0.46875 5.0 -2.71875q1.796875 -2.25 1.796875 -6.34375q0 -4.84375 -1.609375 -6.921875q-1.59375 -2.0625 -3.734375 -2.0625q-1.375 0 -2.46875 0.859375q-1.125 0.859375 -1.875 2.6875q-0.390625 1.0625 -1.796875 6.21875q-1.984375 7.453125 -3.265625 10.40625q-1.265625 2.953125 -3.6875 4.625q-2.421875 1.6875 -6.015625 1.6875q-3.515625 0 -6.625 -2.0625q-3.09375 -2.046875 -4.796875 -5.921875q-1.703125 -3.859375 -1.703125 -8.734375q0 -8.09375 3.359375 -12.328125q3.359375 -4.234375 9.96875 -5.40625z" fill-rule="nonzero"/><path fill="#068d41" d="m400.15747 214.22441l0 0c0 56.69832 -46.160492 102.66142 -103.102356 102.66142l0 0c-27.344452 0 -53.56894 -10.816101 -72.90437 -30.068848c-19.33545 -19.252747 -30.197983 -45.36508 -30.197983 -72.592575l0 0c0 -56.698334 46.160492 -102.661415 103.102356 -102.661415l0 0c56.941864 0 103.102356 45.96308 103.102356 102.661415z" fill-rule="evenodd"/></g></svg>